<svg width="206" height="15" viewBox="0 0 206 15" fill="none" xmlns="http://www.w3.org/2000/svg">
<path d="M197.404 11.7345L199.323 8.0797L199.353 8.76785L194.42 0.953613H196.932L200.51 6.71871H200.069L203.053 0.953613H205.505L199.871 11.7345H197.404Z" fill="white"/>
<path d="M185.026 11.7345V0.953613H187.371V5.41889H188.985L188.574 5.67885L191.588 0.953613H194.177L190.721 6.13761L189.792 5.49535C190.512 5.61768 191.106 5.86745 191.573 6.24466C192.05 6.62186 192.461 7.15708 192.807 7.85032L194.74 11.7345H192.182L190.736 8.67609C190.512 8.18675 190.238 7.84522 189.914 7.65153C189.589 7.44763 189.173 7.34569 188.665 7.34569H187.371V11.7345H185.026Z" fill="white"/>
<path d="M173.458 11.7345V0.953613H175.65V8.44671H175.269L181.086 0.953613H182.852V11.7345H180.644V4.2414H181.025L175.193 11.7345H173.458Z" fill="white"/>
<path d="M161.592 11.7345V0.953613H163.967V5.28126H168.885V0.953613H171.276V11.7345H168.885V7.25393H163.967V11.7345H161.592Z" fill="white"/>
<path d="M149.842 11.7345L154.334 5.74002V6.79517L149.964 0.953613H152.751L155.674 5.06717H154.913L157.851 0.953613H160.638L156.253 6.79517V5.74002L160.775 11.7345H157.973L154.913 7.46802H155.689L152.613 11.7345H149.842Z" fill="white"/>
<path d="M142.202 11.7345V0.953613H149.663V2.80395H144.471V5.32714H149.298V7.19277H144.471V9.88416H149.663V11.7345H142.202Z" fill="white"/>
<path d="M135.122 11.7345V2.8957H131.711V0.953613H140.908V2.8957H137.497V11.7345H135.122Z" fill="white"/>
<path d="M129.584 14.3341V11.7345H120.448V0.953613H122.793V9.79241H127.726V0.953613H130.086V9.79241H131.654V14.3341H129.584Z" fill="white"/>
<path d="M111.333 11.7345V0.953613H118.794V2.80395H113.602V5.32714H118.428V7.19277H113.602V9.88416H118.794V11.7345H111.333Z" fill="white"/>
<path d="M99.5117 11.7345V0.953613H109.15V11.7345H106.79V2.88041H101.857V11.7345H99.5117Z" fill="white"/>
<path d="M94.2805 11.903C93.1334 11.903 92.1488 11.6736 91.3266 11.2148C90.5044 10.7561 89.8699 10.1138 89.4233 9.28802C88.9868 8.45205 88.7686 7.46826 88.7686 6.33665C88.7686 5.20504 88.9868 4.22635 89.4233 3.40058C89.8699 2.57481 90.5044 1.93255 91.3266 1.47379C92.1488 1.01503 93.1334 0.785645 94.2805 0.785645C95.0215 0.785645 95.6965 0.892689 96.3056 1.10678C96.9146 1.31067 97.4323 1.61141 97.8587 2.00901L97.1126 3.88993C96.6456 3.52292 96.199 3.26295 95.7727 3.11003C95.3565 2.95711 94.8845 2.88065 94.3566 2.88065C93.3517 2.88065 92.5802 3.1814 92.0422 3.78288C91.5144 4.37418 91.2504 5.22543 91.2504 6.33665C91.2504 7.44787 91.5144 8.30423 92.0422 8.90571C92.5802 9.5072 93.3517 9.80794 94.3566 9.80794C94.8845 9.80794 95.3565 9.73149 95.7727 9.57857C96.199 9.42564 96.6456 9.16568 97.1126 8.79867L97.8587 10.6796C97.4323 11.067 96.9146 11.3677 96.3056 11.5818C95.6965 11.7959 95.0215 11.903 94.2805 11.903Z" fill="white"/>
<path d="M74.189 11.7345V0.953613H76.549V5.31184H79.4116C80.5992 5.31184 81.528 5.5871 82.198 6.13761C82.868 6.67793 83.2029 7.46802 83.2029 8.50788C83.2029 9.54774 82.868 10.348 82.198 10.9087C81.528 11.4592 80.5992 11.7345 79.4116 11.7345H74.189ZM76.549 9.93004H79.1071C79.7466 9.93004 80.2135 9.8128 80.5079 9.57832C80.8023 9.34385 80.9494 8.98703 80.9494 8.50788C80.9494 8.03892 80.8023 7.69231 80.5079 7.46802C80.2135 7.23354 79.7466 7.1163 79.1071 7.1163H76.549V9.93004Z" fill="white"/>
<path d="M67.1094 11.7345V2.8957H63.6987V0.953613H72.8954V2.8957H69.4847V11.7345H67.1094Z" fill="white"/>
<path d="M53.1338 11.7345L58.0671 0.953613H60.0313L65.0255 11.7345H62.6198L61.3255 8.73726L62.2544 9.39482H55.8745L56.8186 8.73726L55.5243 11.7345H53.1338ZM59.0416 3.46151L57.0774 8.14087L56.6663 7.55977H61.4626L61.1124 8.14087L59.1025 3.46151H59.0416Z" fill="white"/>
<path d="M48.4296 11.903C47.5161 11.903 46.6989 11.7959 45.9782 11.5818C45.2677 11.3575 44.6485 11.0466 44.1206 10.649L44.8362 8.92101C45.2727 9.24724 45.7752 9.5021 46.3436 9.68561C46.9121 9.85892 47.5465 9.94557 48.2469 9.94557C49.059 9.94557 49.6528 9.82324 50.0284 9.57857C50.4141 9.33389 50.607 8.96688 50.607 8.47754C50.607 8.03917 50.4547 7.71294 50.1502 7.49885C49.8457 7.28476 49.3737 7.17771 48.7342 7.17771H46.0543V5.34267H48.4753C49.0945 5.34267 49.5564 5.24072 49.8609 5.03683C50.1654 4.82274 50.3177 4.50161 50.3177 4.07343C50.3177 3.67584 50.1502 3.35471 49.8152 3.11003C49.4904 2.86536 48.9727 2.74303 48.2622 2.74303C47.6734 2.74303 47.0999 2.82968 46.5416 3.00299C45.9833 3.1763 45.496 3.42607 45.0799 3.7523L44.3642 2.00901C44.8413 1.62161 45.4453 1.32087 46.1762 1.10678C46.907 0.892689 47.6886 0.785645 48.521 0.785645C49.8812 0.785645 50.9014 1.0609 51.5815 1.61141C52.2718 2.16193 52.6169 2.87046 52.6169 3.73701C52.6169 4.37927 52.424 4.92979 52.0383 5.38855C51.6627 5.83711 51.145 6.13786 50.4852 6.29078V6.0461C51.2465 6.17864 51.8353 6.47428 52.2515 6.93304C52.6778 7.38161 52.891 7.9729 52.891 8.70692C52.891 9.33899 52.7285 9.8946 52.4037 10.3738C52.0789 10.8529 51.5815 11.2301 50.9115 11.5054C50.2517 11.7704 49.4244 11.903 48.4296 11.903Z" fill="white"/>
<path d="M32.0342 11.7345L36.9675 0.953613H38.9317L43.9259 11.7345H41.5202L40.2259 8.73726L41.1547 9.39482H34.7749L35.7189 8.73726L34.4247 11.7345H32.0342ZM37.942 3.46151L35.9778 8.14087L35.5667 7.55977H40.363L40.0128 8.14087L38.0029 3.46151H37.942Z" fill="white"/>
<path d="M22.6816 11.7345V0.953613H25.0265V5.41889H26.6405L26.2294 5.67885L29.2442 0.953613H31.8327L28.3763 6.13761L27.4475 5.49535C28.1682 5.61768 28.762 5.86745 29.229 6.24466C29.706 6.62186 30.1172 7.15708 30.4623 7.85032L32.396 11.7345H29.838L28.3915 8.67609C28.1682 8.18675 27.8941 7.84522 27.5693 7.65153C27.2445 7.44763 26.8283 7.34569 26.3207 7.34569H25.0265V11.7345H22.6816Z" fill="white"/>
<path d="M9.86377 11.7345L14.7971 0.953613H16.7613L21.7555 11.7345H19.3498L18.0555 8.73726L18.9843 9.39482H12.6045L13.5485 8.73726L12.2543 11.7345H9.86377ZM15.7716 3.46151L13.8074 8.14087L13.3963 7.55977H18.1926L17.8424 8.14087L15.8325 3.46151H15.7716Z" fill="white"/>
<path d="M5.15964 11.903C4.24606 11.903 3.42891 11.7959 2.7082 11.5818C1.99764 11.3575 1.37843 11.0466 0.850586 10.649L1.56623 8.92101C2.00271 9.24724 2.50518 9.5021 3.07363 9.68561C3.64208 9.85892 4.27651 9.94557 4.97692 9.94557C5.78899 9.94557 6.38281 9.82324 6.7584 9.57857C7.14413 9.33389 7.337 8.96688 7.337 8.47754C7.337 8.03917 7.18473 7.71294 6.88021 7.49885C6.57568 7.28476 6.10366 7.17771 5.46416 7.17771H2.78433V5.34267H5.20531C5.82452 5.34267 6.28638 5.24072 6.59091 5.03683C6.89543 4.82274 7.0477 4.50161 7.0477 4.07343C7.0477 3.67584 6.88021 3.35471 6.54523 3.11003C6.2204 2.86536 5.70271 2.74303 4.99215 2.74303C4.4034 2.74303 3.82987 2.82968 3.27157 3.00299C2.71327 3.1763 2.22603 3.42607 1.80984 3.7523L1.09421 2.00901C1.5713 1.62161 2.17528 1.32087 2.90614 1.10678C3.637 0.892689 4.41862 0.785645 5.25099 0.785645C6.61121 0.785645 7.63137 1.0609 8.31148 1.61141C9.00174 2.16193 9.34687 2.87046 9.34687 3.73701C9.34687 4.37927 9.154 4.92979 8.76827 5.38855C8.39268 5.83711 7.87499 6.13786 7.21518 6.29078V6.0461C7.9765 6.17864 8.56525 6.47428 8.98143 6.93304C9.40777 7.38161 9.62094 7.9729 9.62094 8.70692C9.62094 9.33899 9.45853 9.8946 9.1337 10.3738C8.80887 10.8529 8.31148 11.2301 7.64152 11.5054C6.98171 11.7704 6.15442 11.903 5.15964 11.903Z" fill="white"/>
</svg>
