<svg width="129" height="105" viewBox="0 0 129 105" fill="none" xmlns="http://www.w3.org/2000/svg">
<g filter="url(#filter0_d_2003_279)">
<path d="M43.8666 67.2578V61.2578H50.1866V45.1778H53.5466L44.5466 50.2978V43.4978L52.3066 39.0578H57.5466V61.2578H63.4266V67.2578H43.8666ZM73.771 67.6978C72.1976 67.6978 70.6643 67.4445 69.171 66.9378C67.6776 66.4311 66.3443 65.7111 65.171 64.7778L67.451 59.4178C68.411 60.1645 69.4376 60.7245 70.531 61.0978C71.6243 61.4711 72.7176 61.6578 73.811 61.6578C75.8376 61.6578 77.3576 61.0445 78.371 59.8178C79.3843 58.5645 79.891 56.6978 79.891 54.2178V52.1378H80.531C80.291 53.2578 79.8376 54.2311 79.171 55.0578C78.531 55.8845 77.731 56.5111 76.771 56.9378C75.811 57.3645 74.731 57.5778 73.531 57.5778C72.011 57.5778 70.6243 57.1911 69.371 56.4178C68.1176 55.6178 67.131 54.5245 66.411 53.1378C65.691 51.7245 65.331 50.1511 65.331 48.4178C65.331 46.4978 65.7443 44.8045 66.571 43.3378C67.3976 41.8711 68.5443 40.7245 70.011 39.8978C71.5043 39.0445 73.1976 38.6178 75.091 38.6178C78.8243 38.6178 81.7043 39.8578 83.731 42.3378C85.7576 44.8178 86.771 48.3378 86.771 52.8978C86.771 55.9911 86.251 58.6445 85.211 60.8578C84.1976 63.0711 82.7043 64.7645 80.731 65.9378C78.7843 67.1111 76.4643 67.6978 73.771 67.6978ZM75.491 51.9778C76.211 51.9778 76.8243 51.8178 77.331 51.4978C77.8643 51.1778 78.2776 50.7245 78.571 50.1378C78.8643 49.5511 79.011 48.8711 79.011 48.0978C79.011 47.3245 78.8643 46.6445 78.571 46.0578C78.2776 45.4711 77.8643 45.0178 77.331 44.6978C76.8243 44.3778 76.211 44.2178 75.491 44.2178C74.7976 44.2178 74.1843 44.3778 73.651 44.6978C73.1443 45.0178 72.7443 45.4711 72.451 46.0578C72.1576 46.6445 72.011 47.3245 72.011 48.0978C72.011 48.8711 72.1576 49.5511 72.451 50.1378C72.7443 50.7245 73.1443 51.1778 73.651 51.4978C74.1843 51.8178 74.7976 51.9778 75.491 51.9778Z" fill="#ED8700"/>
</g>
<path d="M105.424 41.3837C104.856 38.5906 108.7 35.0039 112.178 33.1444C110.349 28.4996 107.899 24.2282 104.934 20.4003C101.542 22.4388 96.2904 24.1349 94.2753 21.863C92.3847 19.7312 93.9174 14.7052 95.9948 11.3597C92.1591 8.31761 87.8955 5.81237 83.3596 3.94511C81.4379 7.40732 77.7423 11.492 74.8636 10.535C72.1561 9.63247 70.9735 4.4975 71.098 0.560692C66.3364 -0.139531 61.4115 -0.201774 56.44 0.475108C56.51 4.42748 55.3429 9.82698 52.3787 10.4261C49.5855 10.994 45.9989 7.15057 44.1394 3.67279C39.4946 5.50115 35.2232 7.95971 31.3953 10.9162C33.4415 14.3084 35.1298 19.5679 32.858 21.5674C30.7262 23.458 25.7002 21.9175 22.3547 19.8479C19.3126 23.6836 16.8073 27.9394 14.9401 32.4831C18.4023 34.4048 22.4869 38.1082 21.53 40.9791C20.6274 43.6866 15.5003 44.8692 11.5635 44.737C10.8554 49.4985 10.801 54.4234 11.4779 59.395C15.4302 59.3249 20.8219 60.4842 21.4288 63.4485C21.9968 66.2416 18.1533 69.8283 14.6833 71.6878C16.5117 76.3326 18.9702 80.604 21.9267 84.4318C25.3189 82.3934 30.5706 80.6973 32.5779 82.9691C34.4685 85.1009 32.9358 90.127 30.8585 93.4725C34.7019 96.5146 38.9577 99.0198 43.4936 100.887C45.4153 97.4249 49.1187 93.3402 51.9896 94.2972C54.6972 95.1997 55.8798 100.327 55.7475 104.264C60.509 104.972 65.4339 105.026 70.4055 104.349C70.3433 100.397 71.5025 94.9974 74.4668 94.3983C77.2599 93.8304 80.8466 97.6738 82.7061 101.152C87.3509 99.3232 91.6301 96.8647 95.4502 93.9082C93.4117 90.516 91.7156 85.2643 93.9875 83.257C96.1193 81.3664 101.145 82.9069 104.491 84.9764C107.533 81.1408 110.038 76.885 111.913 72.3335C108.451 70.4118 104.366 66.7084 105.323 63.8375C106.226 61.13 111.361 59.9474 115.298 60.0719C116.006 55.3103 116.06 50.3854 115.383 45.4139C111.415 45.515 106.024 44.348 105.424 41.3837ZM70.3822 86.6337C51.4917 90.4771 33.0603 78.2699 29.2168 59.3794C25.3734 40.489 37.5806 22.0575 56.4711 18.2141C75.3615 14.3706 93.793 26.5779 97.6364 45.4683C101.48 64.3666 89.2726 82.7902 70.3822 86.6337Z" fill="white"/>
<path d="M70.4916 1.16755C70.3671 5.10436 71.5497 10.2316 74.2572 11.1418C76.0078 11.7254 78.0618 10.4338 79.8435 8.55102C78.2174 10.0915 76.4202 11.0563 74.8719 10.535C72.1644 9.63247 70.9818 4.4975 71.1062 0.560692C66.3447 -0.139531 61.4198 -0.201774 56.4482 0.475108C56.4482 0.654054 56.4482 0.840778 56.4482 1.01972C61.2098 0.436205 65.9246 0.498449 70.4916 1.16755Z" fill="white"/>
<path d="M32.2605 22.1818C32.4316 22.034 32.5717 21.8628 32.6962 21.6761C30.4865 23.3645 25.6315 21.8784 22.3637 19.8555C22.1925 20.0733 22.0369 20.3067 21.8657 20.5246C25.2191 22.5631 30.1519 24.0491 32.2605 22.1818Z" fill="white"/>
<path d="M43.541 4.28736C45.4005 7.75736 48.9872 11.6086 51.7803 11.0406C52.5194 10.8928 53.1496 10.4416 53.6787 9.78023C53.2897 10.0992 52.8695 10.3326 52.3872 10.426C49.594 10.994 46.0073 7.1505 44.1479 3.67273C39.5031 5.50109 35.2317 7.95965 31.4038 10.9161C31.4271 10.955 31.4505 10.9939 31.4738 11.0406C35.1306 8.30976 39.1607 6.0068 43.541 4.28736Z" fill="white"/>
<path d="M95.3889 11.9668C93.3193 15.3123 91.7788 20.3383 93.6694 22.4701C95.6767 24.7419 100.936 23.0458 104.328 21.0074C107.238 24.773 109.658 28.9744 111.478 33.5414C111.712 33.4014 111.945 33.2691 112.179 33.1446C110.35 28.4998 107.9 24.2284 104.935 20.4005C101.543 22.439 96.2914 24.1351 94.2763 21.8632C92.3857 19.7314 93.9184 14.7054 95.9957 11.3599C92.1601 8.31781 87.8965 5.81257 83.3606 3.94531C83.2283 4.17872 83.0961 4.41212 82.9482 4.64553C87.4141 6.50501 91.6077 8.97135 95.3889 11.9668Z" fill="white"/>
<path d="M69.7993 104.435C70.0016 104.412 70.2039 104.404 70.4062 104.373C70.3595 101.409 70.9975 97.6352 72.5692 95.6746C70.6629 97.254 69.8304 101.199 69.7993 104.435Z" fill="white"/>
<path d="M105.316 63.8609C105.425 63.5342 105.604 63.2307 105.822 62.9429C105.293 63.3863 104.896 63.8921 104.701 64.4678C103.744 67.3387 107.837 71.0421 111.291 72.9638C109.525 77.2508 107.183 81.2654 104.367 84.9299C104.406 84.9532 104.445 84.9688 104.476 84.9921C107.518 81.1564 110.023 76.9006 111.898 72.357C108.444 70.4352 104.351 66.7318 105.316 63.8609Z" fill="white"/>
<path d="M93.5443 83.7783C93.4898 83.8172 93.4198 83.8406 93.3731 83.8795C91.1323 85.8635 92.7585 91.0219 94.7658 94.4142C94.9915 94.2509 95.2249 94.0953 95.4427 93.9241C93.5599 90.7886 91.9726 86.058 93.5443 83.7783Z" fill="white"/>
<path d="M20.4179 42.512C18.4805 44.1303 14.6603 44.8461 11.5637 44.745C11.5326 44.9473 11.5248 45.1573 11.4937 45.3596C14.8626 45.3674 18.8773 44.4649 20.4179 42.512Z" fill="white"/>
<path d="M115.375 45.4452C111.415 45.5152 106.031 44.3559 105.425 41.3917C105.121 39.9134 106.063 38.2095 107.533 36.6613C105.728 38.3651 104.475 40.3258 104.818 41.9985C105.417 44.9628 110.808 46.1221 114.769 46.052C115.414 50.8135 115.375 55.5284 114.753 60.0954C114.932 60.0954 115.119 60.0954 115.29 60.1032C115.99 55.3417 116.045 50.4168 115.375 45.4452Z" fill="white"/>
<path d="M57.7467 24.4771C73.1594 21.3417 88.2453 31.3315 91.3808 46.7442C94.5162 62.1569 84.5264 77.2428 69.1137 80.3704C53.701 83.5059 38.6151 73.516 35.4874 58.1034C32.3442 42.6985 42.3341 27.6125 57.7467 24.4771ZM57.2955 22.2675C40.638 25.6519 29.8856 41.8971 33.2701 58.5546C36.6545 75.2121 52.8996 85.9644 69.5572 82.58C86.2147 79.1956 96.967 62.9505 93.5826 46.2929C90.1982 29.6354 73.953 18.8831 57.2955 22.2675Z" fill="white"/>
<path d="M56.5258 18.4784C75.2451 14.6739 93.5676 26.8033 97.3721 45.5226C101.177 64.2419 89.0472 82.5644 70.3279 86.3689C51.6086 90.1735 33.2861 78.0441 29.4816 59.3248C25.6771 40.6055 37.8065 22.283 56.5258 18.4784ZM56.4091 17.9027C37.3474 21.7773 25.0313 40.3721 28.9059 59.4415C32.7804 78.5031 51.3752 90.8192 70.4446 86.9447C89.5063 83.0701 101.822 64.4753 97.9478 45.4059C94.0655 26.3443 75.4707 14.0281 56.4091 17.9027Z" fill="white"/>
<defs>
<filter id="filter0_d_2003_279" x="39.8667" y="38.6178" width="50.9043" height="37.08" filterUnits="userSpaceOnUse" color-interpolation-filters="sRGB">
<feFlood flood-opacity="0" result="BackgroundImageFix"/>
<feColorMatrix in="SourceAlpha" type="matrix" values="0 0 0 0 0 0 0 0 0 0 0 0 0 0 0 0 0 0 127 0" result="hardAlpha"/>
<feOffset dy="4"/>
<feGaussianBlur stdDeviation="2"/>
<feComposite in2="hardAlpha" operator="out"/>
<feColorMatrix type="matrix" values="0 0 0 0 0 0 0 0 0 0 0 0 0 0 0 0 0 0 0.25 0"/>
<feBlend mode="normal" in2="BackgroundImageFix" result="effect1_dropShadow_2003_279"/>
<feBlend mode="normal" in="SourceGraphic" in2="effect1_dropShadow_2003_279" result="shape"/>
</filter>
</defs>
</svg>
