<svg width="43" height="49" viewBox="0 0 43 49" fill="none" xmlns="http://www.w3.org/2000/svg">
<path d="M39.8162 15.8062C32.6515 2.84002 11.6244 0 11.6244 0C11.6244 0 21.3298 10.8018 8.926 19.3522C1.08763 24.745 -2.01737 31.752 1.34048 39.4062C3.90944 45.2704 9.35079 47.6512 15.2189 48.5473C13.712 45.6466 13.3337 41.4574 14.4482 37.163C14.5595 36.7341 14.6829 36.2851 14.8245 35.8785C16.469 38.4232 19.1675 39.8148 21.8011 39.1716C25.4078 38.3139 27.5237 33.9507 26.5385 29.4662C26.314 28.4932 25.9479 27.5587 25.4543 26.6909C25.5959 26.7253 25.7375 26.7374 25.8832 26.786C30.3839 28.0704 32.5604 34.8003 30.744 41.8255C30.2059 43.9535 29.2977 45.9702 28.0617 47.7827C35.7888 45.2946 40.9288 39.0624 42.3427 33.5098C43.8335 27.7306 42.7028 20.9967 39.8162 15.8062Z" fill="#ED8700"/>
</svg>
