<svg width="21" height="26" viewBox="0 0 21 26" fill="none" xmlns="http://www.w3.org/2000/svg">
<g clip-path="url(#clip0_1_339)">
<path d="M19.5413 10.4597C19.5413 14.1361 14.9913 20.2245 12.3468 23.4527C11.3792 24.6338 9.62018 24.6338 8.65259 23.4527C6.00805 20.2245 1.45801 14.1361 1.45801 10.4597C1.45801 5.27734 5.5061 1.07617 10.4997 1.07617C15.4933 1.07617 19.5413 5.27734 19.5413 10.4597Z" stroke="#FFD633" stroke-width="2" stroke-linecap="round"/>
<path d="M13.8593 10.1182C13.8593 11.9729 12.3556 13.4765 10.5009 13.4765C8.64622 13.4765 7.14258 11.9729 7.14258 10.1182C7.14258 8.26334 8.64622 6.75977 10.5009 6.75977C12.3556 6.75977 13.8593 8.26334 13.8593 10.1182Z" stroke="#FFD633" stroke-width="2" stroke-linecap="round"/>
</g>
<defs>
<clipPath id="clip0_1_339">
<rect width="21" height="26" fill="white"/>
</clipPath>
</defs>
</svg>
