<svg width="185" height="32" viewBox="0 0 185 32" fill="none" xmlns="http://www.w3.org/2000/svg">
<path d="M15.2651 2.2022C15.6078 1.38396 16.7672 1.38396 17.1099 2.2022L20.2037 9.58895C20.3479 9.93318 20.6718 10.1685 21.0437 10.1992L29.025 10.859C29.9091 10.9321 30.2673 12.0347 29.595 12.6135L23.5258 17.8385C23.243 18.082 23.1193 18.4627 23.205 18.826L25.0439 26.6205C25.2475 27.4839 24.3096 28.1653 23.5514 27.7048L16.7066 23.5473C16.3877 23.3536 15.9873 23.3536 15.6684 23.5473L8.82356 27.7048C8.06536 28.1653 7.12746 27.4839 7.33115 26.6205L9.17 18.826C9.25569 18.4627 9.13198 18.082 8.84915 17.8385L2.77999 12.6135C2.1077 12.0347 2.46594 10.9321 3.35004 10.859L11.3313 10.1992C11.7032 10.1685 12.0271 9.93318 12.1713 9.58895L15.2651 2.2022Z" fill="#FFD633"/>
<path d="M53.2651 2.2022C53.6078 1.38396 54.7672 1.38396 55.1099 2.2022L58.2037 9.58895C58.3479 9.93318 58.6718 10.1685 59.0437 10.1992L67.025 10.859C67.9091 10.9321 68.2673 12.0347 67.595 12.6135L61.5258 17.8385C61.243 18.082 61.1193 18.4627 61.205 18.826L63.0439 26.6205C63.2475 27.4839 62.3096 28.1653 61.5514 27.7048L54.7066 23.5473C54.3877 23.3536 53.9873 23.3536 53.6684 23.5473L46.8236 27.7048C46.0654 28.1653 45.1275 27.4839 45.3311 26.6205L47.17 18.826C47.2557 18.4627 47.132 18.082 46.8492 17.8385L40.78 12.6135C40.1077 12.0347 40.4659 10.9321 41.35 10.859L49.3313 10.1992C49.7032 10.1685 50.0271 9.93318 50.1713 9.58895L53.2651 2.2022Z" fill="#FFD633"/>
<path d="M91.2651 2.2022C91.6078 1.38396 92.7672 1.38396 93.1099 2.2022L96.2037 9.58895C96.3479 9.93318 96.6718 10.1685 97.0437 10.1992L105.025 10.859C105.909 10.9321 106.267 12.0347 105.595 12.6135L99.5258 17.8385C99.243 18.082 99.1193 18.4627 99.205 18.826L101.044 26.6205C101.248 27.4839 100.31 28.1653 99.5514 27.7048L92.7066 23.5473C92.3877 23.3536 91.9873 23.3536 91.6684 23.5473L84.8236 27.7048C84.0654 28.1653 83.1275 27.4839 83.3311 26.6205L85.17 18.826C85.2557 18.4627 85.132 18.082 84.8492 17.8385L78.78 12.6135C78.1077 12.0347 78.4659 10.9321 79.35 10.859L87.3313 10.1992C87.7032 10.1685 88.0271 9.93318 88.1713 9.58895L91.2651 2.2022Z" fill="#FFD633"/>
<path d="M129.265 2.2022C129.608 1.38396 130.767 1.38396 131.11 2.2022L134.204 9.58895C134.348 9.93318 134.672 10.1685 135.044 10.1992L143.025 10.859C143.909 10.9321 144.267 12.0347 143.595 12.6135L137.526 17.8385C137.243 18.082 137.119 18.4627 137.205 18.826L139.044 26.6205C139.248 27.4839 138.31 28.1653 137.551 27.7048L130.707 23.5473C130.388 23.3536 129.987 23.3536 129.668 23.5473L122.824 27.7048C122.065 28.1653 121.127 27.4839 121.331 26.6205L123.17 18.826C123.256 18.4627 123.132 18.082 122.849 17.8385L116.78 12.6135C116.108 12.0347 116.466 10.9321 117.35 10.859L125.331 10.1992C125.703 10.1685 126.027 9.93318 126.171 9.58895L129.265 2.2022Z" fill="#FFD633"/>
<path d="M167.265 2.2022C167.608 1.38396 168.767 1.38396 169.11 2.2022L172.204 9.58895C172.348 9.93318 172.672 10.1685 173.044 10.1992L181.025 10.859C181.909 10.9321 182.267 12.0347 181.595 12.6135L175.526 17.8385C175.243 18.082 175.119 18.4627 175.205 18.826L177.044 26.6205C177.248 27.4839 176.31 28.1653 175.551 27.7048L168.707 23.5473C168.388 23.3536 167.987 23.3536 167.668 23.5473L160.824 27.7048C160.065 28.1653 159.127 27.4839 159.331 26.6205L161.17 18.826C161.256 18.4627 161.132 18.082 160.849 17.8385L154.78 12.6135C154.108 12.0347 154.466 10.9321 155.35 10.859L163.331 10.1992C163.703 10.1685 164.027 9.93318 164.171 9.58895L167.265 2.2022Z" fill="#FFD633"/>
</svg>
