<svg width="103" height="68" viewBox="0 0 103 68" fill="none" xmlns="http://www.w3.org/2000/svg">
<g clip-path="url(#clip0_1_630)">
<path d="M78.2437 0.505443L78.2045 0.993268L77.0043 1.33612C76.3445 1.52027 75.1698 1.92973 74.3925 2.24711C73.1003 2.77608 72.928 2.80155 72.2035 2.72318C71.438 2.6311 71.3597 2.65657 69.8032 3.35598C68.9064 3.76544 67.7317 4.26698 67.1913 4.47857C66.6509 4.69015 65.3979 5.21716 64.4209 5.65405C62.7058 6.40636 61.4664 6.9079 60.1997 7.31735C58.9603 7.72681 57.6015 8.28125 57.1649 8.53202C56.9143 8.69071 56.4914 8.88858 56.2408 8.99437C55.3832 9.33722 54.9075 9.68007 54.512 10.2619C54.2085 10.7106 53.997 10.8693 53.5624 10.9751C52.7714 11.1729 51.6495 11.6079 50.9642 12.0056C49.3548 12.9166 47.6397 15.2127 46.6099 17.8536C46.465 18.2101 46.0812 19.0545 45.766 19.7285C45.2648 20.7707 45.1728 20.8765 45.1336 20.5591C45.0553 19.7931 45.067 19.7931 38.4317 20.8765C35.8336 21.3115 34.3691 21.4839 34.4866 21.3526C34.5923 21.2331 36.8869 20.8119 39.1561 20.4808C41.4254 20.1497 44.1038 19.7148 44.8948 19.5443C46.0812 19.2798 46.1341 18.7136 44.9731 18.5667C44.1938 18.4609 41.9129 18.7783 39.0896 19.3582C38.2594 19.5424 36.8067 19.7931 35.8571 19.9518C34.9212 20.0968 33.9579 20.2418 33.7328 20.2809L33.3099 20.3476L33.3882 23.78L33.4547 27.2124H33.0318H32.6226V25.5882C32.6226 24.5048 32.5698 23.9112 32.464 23.8054C32.2917 23.633 31.3422 23.5938 30.9858 23.7271C30.8664 23.7662 30.7744 23.9524 30.7744 24.1365C30.7744 24.4402 30.8135 24.4657 31.1699 24.3873C31.5262 24.3207 31.5928 24.3618 31.7103 24.6772C31.8551 25.0338 31.816 27.132 31.6711 27.277C31.6319 27.3299 31.0504 27.3965 30.3906 27.4357L29.1904 27.5141V26.656C29.1904 26.1153 29.1239 25.7313 29.0181 25.6529C28.5424 25.2572 25.1258 25.3884 22.7255 25.9037C22.0402 26.0486 20.9966 26.221 20.4171 26.2994C18.7803 26.511 18.373 26.6697 18.1616 27.1712C18.0559 27.4083 17.9775 27.804 17.9775 28.0685C17.9775 28.6621 17.8052 28.7425 15.9589 28.9129C14.1244 29.0971 13.4137 29.389 13.2942 30.0081C13.2022 30.5625 12.9242 37.4136 12.9516 38.5479C12.9516 39.0632 13.0299 39.4452 13.1239 39.5255C13.2962 39.6313 27.583 39.5647 35.5908 39.4197C37.768 39.3806 39.7983 39.3806 40.1155 39.4197L40.6696 39.4981L40.3798 39.8801C40.0235 40.3288 39.5497 40.3817 39.35 40.0114C39.1659 39.6685 38.7567 39.6685 38.467 40.0114C38.1772 40.3405 37.768 40.3405 37.3333 40.0114C36.9104 39.6685 36.8576 39.6823 36.7127 40.078C36.5404 40.5266 35.8297 40.5541 35.7631 40.1172C35.7102 39.7077 35.2873 39.6411 35.2345 40.0388C35.209 40.2759 35.1033 40.3562 34.7587 40.3817C34.4024 40.4209 34.3103 40.368 34.2046 40.0917C34.1263 39.8664 33.9795 39.7489 33.7954 39.7489C33.5585 39.7489 33.5194 39.8155 33.5703 40.2112C33.6231 40.6462 33.5957 40.6736 33.2413 40.6736C32.9379 40.6736 32.8321 40.5952 32.7127 40.2778C32.5933 39.9605 32.4875 39.8821 32.1841 39.8821C31.8277 39.8821 31.814 39.9076 31.8943 40.2915C31.9863 40.6873 31.9726 40.6873 31.5517 40.6481C31.209 40.6226 31.1033 40.5423 31.0367 40.2778C30.931 39.8429 30.2457 39.7097 30.2457 40.1329C30.2457 40.2915 30.3123 40.4091 30.3769 40.4091C30.4552 40.4091 30.5081 40.462 30.5081 40.5404C30.5081 40.607 30.3104 40.6716 30.0597 40.6716C29.6897 40.6716 29.5977 40.6187 29.5585 40.368C29.5331 40.1838 29.4273 40.078 29.255 40.078C29.0044 40.078 28.9653 40.2093 29.071 40.6716C29.1102 40.8166 29.0044 40.8695 28.6618 40.8695C28.2389 40.8695 28.1997 40.844 28.1997 40.4737C28.1997 40.1446 28.1469 40.078 27.8434 40.0388C27.5536 39.9996 27.4734 40.0525 27.4734 40.2641C27.4734 40.4091 27.5399 40.5678 27.6045 40.607C27.8806 40.7794 27.724 40.9361 27.2874 40.9361C26.8919 40.9361 26.8253 40.8969 26.7861 40.5658C26.7607 40.2896 26.6667 40.1955 26.3906 40.1701C26.1263 40.1446 26.0206 40.1838 26.0206 40.3425C26.0206 40.4483 26.1126 40.5795 26.2183 40.6187C26.5355 40.75 26.4552 41.0674 26.0989 41.0674C25.9266 41.0674 25.6897 41.1066 25.5703 41.1457C25.398 41.2123 25.3588 41.132 25.3588 40.75C25.3588 40.3268 25.3197 40.2739 25.0299 40.2739C24.701 40.2739 24.5952 40.4581 24.8322 40.6031C24.9105 40.6422 24.9633 40.8009 24.9633 40.9459C24.9633 41.1712 24.885 41.2104 24.5404 41.1712C24.1586 41.132 24.1058 41.0928 24.1312 40.7617C24.1567 40.4444 24.1058 40.4052 23.7749 40.4052C23.2874 40.4052 23.1542 40.6168 23.4577 40.9459C23.722 41.2496 23.7083 41.2633 23.1542 41.3691C22.7059 41.4612 22.6393 41.3828 22.6922 40.7617C22.7059 40.5893 22.6139 40.5364 22.3221 40.5364C21.9521 40.5364 21.6094 40.8009 21.8875 40.893C22.1244 40.9714 22.5199 41.3025 22.4553 41.3691C22.4161 41.4083 22.1381 41.4749 21.8346 41.5278C21.3197 41.6061 21.2668 41.5944 21.2668 41.3436C21.2668 41.1986 21.3334 41.0399 21.398 41.0008C21.8855 40.6971 20.7127 40.6187 19.4597 40.8812C19.0505 40.9596 19.0779 41.3044 19.4851 41.4886C19.8943 41.6727 19.908 41.806 19.5243 41.9118C18.839 42.0842 18.7196 42.0313 18.8116 41.5297C18.9036 41.0674 18.9036 41.0674 18.4298 41.0674C17.9012 41.0674 17.8503 41.1732 18.2321 41.5023C18.377 41.6218 18.4964 41.7785 18.4964 41.8451C18.4964 41.9764 17.7308 42.1488 17.5605 42.043C17.3628 41.9235 17.4293 41.4631 17.6388 41.4631C17.7446 41.4631 17.8366 41.3965 17.8366 41.3319C17.8366 41.2535 17.5723 41.2006 17.2433 41.2006C16.9144 41.2006 16.6501 41.2535 16.6501 41.3201C16.6501 41.4925 17.0319 41.8608 17.2179 41.8608C17.5214 41.8745 16.8615 42.2566 16.5444 42.2566C16.2409 42.2566 16.2272 42.2174 16.2937 41.7805L16.3721 41.3044L15.818 41.3828C15.5145 41.4357 14.7764 41.5278 14.1949 41.5944C12.2037 41.8197 11.213 42.333 10.6335 43.4693C10.3691 43.9845 10.1577 45.6596 10.3045 46.1748C10.3966 46.504 10.4631 46.5451 10.8586 46.504C11.4793 46.4511 11.6633 46.214 11.7827 45.3696C11.8748 44.6173 12.6795 43.1911 13.075 43.0735C13.1944 43.0343 13.167 43.1519 12.9692 43.4164C12.6403 43.8924 12.0334 45.5812 12.0334 46.0436C12.0334 46.3472 12.0588 46.3609 13.0632 46.3198L14.0794 46.2806L14.1185 45.8849C14.1968 44.9073 14.2908 44.6839 14.6589 44.4586C15.2659 44.1021 15.7808 44.1687 16.1763 44.6428C16.5326 45.0522 16.652 45.8575 16.3877 46.0161C16.3094 46.069 16.2565 45.8966 16.2565 45.5812C16.2565 44.1961 14.8312 44.4194 14.6334 45.832L14.5669 46.3081L15.9002 46.4001C16.6383 46.4393 22.7999 46.4785 29.5801 46.4785C37.1121 46.4785 42.324 46.5314 42.9564 46.6098C43.998 46.741 44.0117 46.741 44.3818 46.3845C44.8693 45.9221 45.2002 44.8936 45.1082 44.1667C44.977 43.242 44.3955 42.1214 43.7494 41.514L43.1561 40.9596L44.0529 40.8538C45.4253 40.7088 50.649 40.9204 51.1757 41.1301C51.4126 41.2359 51.6104 41.3554 51.6104 41.4063C51.6104 41.4572 50.4239 41.4455 48.9711 41.4063C46.4376 41.3142 44.3544 41.3926 44.3544 41.5787C44.3544 41.6316 44.4855 41.8158 44.6304 41.9744L44.9202 42.2781L48.5345 42.2389C51.8727 42.186 52.1625 42.1997 52.2819 42.4113C52.4013 42.6366 52.2036 42.6484 48.8654 42.6484C45.0651 42.6484 45.0651 42.6484 45.2374 43.2949C45.304 43.5711 45.3568 43.5711 48.9848 43.5711C52.4013 43.5711 52.6657 43.5849 52.6657 43.7964C52.6657 44.0217 52.4288 44.0335 49.1688 43.9943C45.4488 43.9414 45.2237 43.9806 45.304 44.5487C45.3431 44.825 45.396 44.825 48.9456 44.825C52.4679 44.825 52.5462 44.825 52.5071 45.0895C52.4679 45.354 52.3876 45.354 48.9456 45.3148C45.4762 45.2619 45.4234 45.2756 45.2785 45.5518C45.2002 45.6968 45.1591 45.9339 45.2119 46.0671C45.2785 46.2787 45.5683 46.3178 48.417 46.4099C53.7601 46.5941 64.2878 46.5941 64.6832 46.4099C64.9339 46.2904 65.3822 46.2787 66.3318 46.357C67.0445 46.4099 68.601 46.4628 69.7757 46.4765C72.1233 46.4765 72.1115 46.4765 72.2172 45.6321L72.2564 45.2619L69.2217 45.2756C67.5594 45.2893 65.9892 45.3285 65.7523 45.3814C65.3431 45.448 65.3176 45.4343 65.3568 45.1443C65.3822 44.9327 65.4762 44.8544 65.5937 44.8798C66.042 45.0248 67.5202 45.0522 69.7895 44.9582C72.4679 44.8524 72.5462 44.8269 72.1507 44.0472C72.045 43.8219 71.9138 43.4791 71.8746 43.2812C71.7552 42.7522 70.8056 41.6434 70.0283 41.1163C69.6465 40.8656 68.973 40.5756 68.5501 40.4698C67.3362 40.1936 64.3426 40.0075 61.0709 40.0075H58.0753V40.3366C58.0753 40.5208 58.1419 40.6657 58.2339 40.6657C58.3397 40.6657 58.3534 40.7049 58.2594 40.797C58.1145 40.942 57.2824 40.8225 57.2824 40.6657C57.2824 40.6129 57.3744 40.4933 57.4801 40.4013C57.9951 39.9781 57.717 39.8997 55.3421 39.8331C52.8889 39.7665 51.7415 39.5823 51.7415 39.2787C51.7415 39.0671 51.8727 39.0416 54.512 38.7497C57.3215 38.446 58.694 38.1698 59.0758 37.8387C59.5105 37.4684 60.0528 36.1499 60.1448 35.2507C60.2643 33.944 59.6691 31.2639 57.9285 25.4158C57.4938 23.9641 57.0983 22.63 57.0455 22.4458C56.926 22.05 56.4522 21.7856 55.8061 21.7856C55.1855 21.7856 55.1737 21.6132 55.7396 20.8491C56.9143 19.2524 57.3098 18.9742 59.3284 18.4335C62.1125 17.6812 66.3866 16.4665 67.7709 16.0316C75.1854 13.7472 78.3239 12.8108 78.5883 12.8108C78.6666 12.8108 78.8917 13.1536 79.1032 13.5631C79.3009 13.9862 80.0273 15.1598 80.6989 16.1766C81.3587 17.1934 82.0831 18.3159 82.2828 18.6843C82.4943 19.0408 82.9681 19.8597 83.3518 20.4925C83.7336 21.1136 84.3543 22.1813 84.7361 22.869C85.1061 23.5429 85.9891 25.073 86.7018 26.2739C88.0214 28.5172 88.6284 29.6534 89.3528 31.1855C89.8011 32.1357 89.762 32.3727 89.1942 32.5451C89.063 32.598 88.9436 32.7175 88.9436 32.8351C88.9436 32.9801 88.877 33.0075 88.7184 32.9409C88.3895 32.8096 87.3459 32.5706 87.3068 32.6372C87.2931 32.6509 86.7527 33.5619 86.1066 34.6571C85.4742 35.7405 84.6421 37.0864 84.2857 37.6271C83.6396 38.591 81.621 40.795 81.3841 40.795C81.3313 40.795 80.9358 40.4659 80.5129 40.0682C79.3792 38.9848 79.2598 39.0788 79.761 40.701C79.8668 41.0439 79.9059 41.3221 79.8531 41.3221C79.7473 41.3221 78.8898 40.4385 78.23 39.6333C78.0322 39.408 77.8482 39.2101 77.8071 39.2101C77.7013 39.2101 77.8736 40.4248 78.0185 40.6893C78.2025 41.0595 77.8208 40.9929 77.3058 40.5697C77.0689 40.3719 76.4346 39.8037 75.9079 39.3022C74.7214 38.1933 74.0342 37.8642 74.0342 38.4186C74.0342 39.1572 75.3264 41.1379 76.6206 42.378C80.1702 45.783 82.32 46.5765 87.3185 46.312C88.3875 46.2454 90.6959 46.1533 92.4365 46.0867C96.0899 45.9554 96.4345 45.8751 97.5818 44.872C98.5451 44.0276 98.8486 43.6573 99.4947 42.5485C100.722 40.4757 101.026 38.0464 100.207 37.0825C100.102 36.963 100.023 36.5809 100.023 36.1852V35.4995L100.656 35.235C101.394 34.9176 101.605 34.6806 101.605 34.1124C101.605 33.7951 101.486 33.5835 101.143 33.2818C100.893 33.0565 100.681 32.8194 100.681 32.741C100.681 32.6627 100.47 32.4766 100.219 32.3316C99.9685 32.1729 99.7571 32.0416 99.7571 32.0279C99.7571 32.0142 99.9548 31.1169 100.205 30.0355C100.534 28.57 100.72 28.0293 100.891 27.9235C101.378 27.659 101.999 26.9596 101.999 26.6834C101.999 26.2877 101.523 25.3904 101.233 25.2454C101.114 25.1788 100.389 25.0083 99.6494 24.8888C98.5549 24.691 98.2514 24.5852 98.1183 24.3736C95.9548 20.757 94.8721 18.79 94.8721 18.4727C94.8721 18.3806 94.9641 18.1964 95.0836 18.0632C95.2813 17.8653 95.2813 17.7595 95.1364 17.2188C95.0444 16.8897 94.7409 16.3353 94.4766 15.9904C93.856 15.199 92.5109 13.0733 92.0351 12.1486C91.8374 11.7528 91.3753 10.9339 91.0327 10.354C90.6763 9.7604 90.412 9.19225 90.4531 9.08645C90.4923 8.98066 90.414 8.69071 90.2691 8.43994C90.1242 8.18917 89.9519 7.74053 89.8599 7.42315C89.7542 7.0274 89.6093 6.81582 89.3841 6.71002C89.2001 6.61794 88.9358 6.32799 88.7909 6.06351C88.1448 4.79595 84.3582 0.822823 83.25 0.254674C82.7625 0.0176186 81.1531 -0.115603 81.1531 0.08227C81.1531 0.135167 81.7855 0.834578 82.5785 1.63978C84.834 3.97703 85.1237 4.66273 85.1511 7.83065C85.1648 9.53314 85.1257 10.0092 84.8614 10.9594C84.3738 12.8343 83.6083 14.2586 83.1071 14.2586C83.0405 14.2586 83.1462 14.0333 83.3322 13.757C83.8335 13.0302 84.1624 12.2524 84.5324 10.9065C84.8496 9.81133 84.8751 9.56056 84.8085 7.98934C84.7028 5.28377 84.2153 4.14747 82.2358 1.89055C81.7346 1.3224 81.2197 0.662174 81.1022 0.425119L80.877 0.00194551H79.5711H78.2652L78.2437 0.505443ZM83.6122 1.57513C84.2975 2.15503 87.6357 6.43378 87.6357 6.73745C87.6357 7.05483 87.3851 6.85696 86.9093 6.13012C86.2887 5.19365 84.785 3.23844 83.8491 2.15699C83.1639 1.37726 83.0444 1.08731 83.6122 1.57513ZM77.0826 2.06296C77.0826 2.15503 76.7929 2.27454 74.7743 2.99942C73.1649 3.57933 72.5716 3.67336 73.7327 3.17183C74.3651 2.89559 76.7929 2.02377 76.9906 2.01006C77.0435 1.99634 77.0826 2.02377 77.0826 2.06296ZM78.4669 2.81526C78.506 2.98767 78.5334 3.76544 78.506 4.57065L78.4669 6.02237L77.8071 6.24767C77.437 6.36717 76.4874 6.61794 75.6964 6.8021C74.8917 6.98626 73.4801 7.31735 72.5305 7.52894C71.5946 7.75424 69.8384 8.14999 68.6382 8.40076C67.438 8.66524 65.7483 9.04727 64.879 9.25886C60.0234 10.4343 58.046 10.8301 59.8257 10.2482C60.2075 10.117 61.6191 9.58799 62.9662 9.06098C66.8448 7.55637 68.4287 6.96275 70.6176 6.21044C72.7557 5.47185 73.2569 5.16818 73.2569 4.57261C73.2569 4.34731 73.3352 4.24347 73.4938 4.24347C73.7444 4.22976 74.3239 4.03189 76.554 3.1346C77.3841 2.80547 78.1497 2.54098 78.23 2.52727C78.322 2.52531 78.4277 2.65657 78.4669 2.81526ZM71.5418 3.76544C71.5418 3.85752 71.436 3.97703 71.3166 4.01621C71.1854 4.0554 70.3396 4.39824 69.4292 4.76852C67.3714 5.62662 63.3871 7.21156 60.789 8.20092C59.7063 8.61038 58.7038 9.00613 58.5726 9.05903C58.4141 9.12564 58.3612 9.09821 58.4141 8.96695C58.4532 8.86115 59.6279 8.33415 61.0259 7.77971C67.0543 5.37781 70.8271 3.84577 71.0131 3.72626C71.3049 3.5421 71.5418 3.55582 71.5418 3.76544ZM85.9734 6.44554C86.1183 7.34282 86.0518 9.61346 85.854 10.5519C85.4448 12.5189 84.6675 13.9314 83.624 14.6308C83.0953 15.0011 82.8721 15.0657 82.2397 15.0657C81.3567 15.0657 80.4992 14.7092 80.1683 14.2213C79.8393 13.6924 80.0488 13.6532 80.5912 14.1293C80.8555 14.3663 81.1061 14.525 81.1453 14.4858C81.1844 14.4466 80.9475 14.1822 80.6303 13.8922L80.0508 13.377L80.0254 10.8947C80.0117 8.99437 80.0391 8.46541 80.1565 8.66328C80.2486 8.83568 80.3014 9.61346 80.276 10.8418C80.2505 12.9675 80.368 13.4945 80.9495 13.9314C81.1472 14.0764 81.623 14.2351 82.0048 14.288L82.6901 14.3663L82.0048 14.3918C81.623 14.3918 81.3058 14.4584 81.3058 14.5231C81.3058 14.7738 82.0968 14.813 82.8232 14.6014C83.667 14.3644 84.0508 13.9275 84.7752 12.37C85.3959 11.0632 85.5408 10.3638 85.5799 8.25186C85.6054 7.24878 85.6328 6.31232 85.6465 6.1791C85.67 5.7716 85.8814 5.944 85.9734 6.44554ZM79.761 7.35654C80.7498 7.85808 81.3039 8.64957 81.2921 9.54881V10.117L81.0278 9.45673C80.738 8.75732 80.0117 7.89922 79.4321 7.59555C78.9446 7.34478 78.2711 7.3585 77.5192 7.66216C77.1766 7.79342 76.3856 8.00501 75.765 8.13823C75.1443 8.25774 74.0498 8.50851 73.3235 8.69267C72.0175 9.01005 70.0773 9.43126 66.4512 10.1836C65.4214 10.3952 63.998 10.7125 63.2853 10.8967C62.5726 11.0691 60.8575 11.4374 59.4733 11.7019C58.1008 11.9664 56.2936 12.3347 55.4752 12.5208C54.6568 12.705 53.9442 12.8245 53.905 12.7716C53.8521 12.7324 53.9187 12.6932 54.0499 12.6932C54.1693 12.6932 54.9075 12.4816 55.6867 12.2446C56.4659 11.9938 57.6387 11.6901 58.3122 11.5706C59.9745 11.2944 61.8345 10.8967 63.6279 10.4481C64.4581 10.2502 65.5663 10.0131 66.0694 9.9328C67.111 9.7604 68.9182 9.3529 72.0058 8.59863C73.1668 8.30868 74.8545 7.92469 75.765 7.74053C76.6754 7.56812 77.5995 7.3585 77.809 7.29189C78.4414 7.09205 79.299 7.1332 79.761 7.35654ZM78.9152 8.72989C79.2187 9.15306 79.2187 9.16482 78.5197 9.30979C78.044 9.41559 77.8208 9.13739 78.0048 8.67699C78.1771 8.21464 78.5471 8.24011 78.9152 8.72989ZM91.25 13.4808L92.7674 16.4508L93.4663 16.4254L94.1653 16.3999L93.5721 16.5312C93.2431 16.6095 92.926 16.729 92.8594 16.7956C92.6616 16.9798 92.3836 16.9406 92.3836 16.729C92.3836 16.637 91.6709 15.0794 90.7997 13.2829C89.9284 11.4884 89.2157 9.91713 89.2157 9.79762C89.2314 9.56056 89.1922 9.49591 91.25 13.4808ZM56.1057 10.115C56.1057 10.1816 55.3793 10.5774 55.2481 10.5774C55.0367 10.5774 55.2344 10.3403 55.5516 10.2208C55.9745 10.0503 56.1057 10.0229 56.1057 10.115ZM91.0405 11.4355C91.1991 11.7646 91.2774 12.0291 91.2245 12.0291C91.1462 12.0291 90.8956 11.6196 90.5647 10.9339C90.5393 10.881 90.5784 10.8418 90.6313 10.8418C90.6959 10.8418 90.8819 11.1063 91.0405 11.4355ZM77.0826 11.3434C77.0826 11.41 76.648 11.5687 76.133 11.6999C75.6044 11.8312 74.1673 12.2681 72.928 12.6501C69.3 13.7982 66.6744 14.6308 63.2324 15.726C61.4508 16.2941 59.1815 17.0072 58.1674 17.3109C54.0773 18.551 53.0083 19.1995 51.5986 21.3115C51.164 21.958 50.7802 22.4595 50.7547 22.4203C50.6882 22.3537 52.2584 18.8821 52.4425 18.698C52.5208 18.6196 52.5345 18.7372 52.4816 19.0545C52.415 19.3719 52.4425 19.5561 52.5208 19.5561C52.5991 19.5561 53.1806 19.1995 53.813 18.7763C54.9877 17.9711 55.0798 17.9319 59.1424 16.6899C59.9725 16.4391 61.1081 16.0825 61.6485 15.8984C64.6832 14.8953 68.0078 13.8393 69.6289 13.3515C70.6451 13.0478 72.0175 12.6247 72.6636 12.4013C73.903 11.9781 76.4502 11.2787 76.8594 11.2533C76.9769 11.2376 77.0826 11.2905 77.0826 11.3434ZM86.9759 13.4553C87.9118 16.9406 89.1139 21.2174 89.6151 22.9199C90.1692 24.7674 90.5784 26.5502 90.4727 26.656C90.3415 26.7872 89.7463 24.8085 87.3851 16.3862C86.5549 13.4161 86.1183 11.2513 86.4081 11.5412C86.4492 11.5941 86.7116 12.4522 86.9759 13.4553ZM89.8129 14.3526C90.1555 15.1441 90.7096 16.3862 91.0268 17.0974C91.6866 18.6157 92.0429 19.2367 92.319 19.3406C92.4384 19.3797 92.7811 19.3797 93.0845 19.3406L93.6523 19.2622L95.1423 22.2597C95.9725 23.9367 96.5794 25.3081 96.5148 25.3747C96.4091 25.4805 92.926 26.417 92.6499 26.417C92.5833 26.417 92.4913 26.2583 92.4384 26.0467C92.3993 25.8488 91.6474 23.1961 90.7762 20.1458C88.9945 13.9549 88.4287 11.8959 88.4287 11.698C88.4267 11.4746 89.1394 12.8225 89.8129 14.3526ZM52.8086 12.2152C52.8086 12.2407 52.4131 12.466 51.9373 12.703C50.9212 13.232 49.5761 14.525 48.8106 15.726C48.1899 16.7153 47.4772 18.3532 46.1459 21.9305C45.5781 23.4214 44.9711 24.9672 44.8008 25.3629C44.0881 26.9596 43.2051 29.2969 43.0328 29.9826C42.8076 30.9719 42.7156 30.5899 42.9134 29.4536C43.0054 28.9129 43.2834 28.0803 43.5986 27.4475C44.0744 26.4581 45.3392 23.249 46.1439 21.0058C46.5668 19.8303 48.1233 16.2275 48.4131 15.7651C48.9926 14.8404 50.1008 13.5748 50.602 13.2575C51.7259 12.5443 52.8086 12.0291 52.8086 12.2152ZM92.0429 13.1908C93.204 15.052 93.5995 15.7377 93.5466 15.7906C93.4154 15.9356 92.7556 15.0383 92.1213 13.8374C91.4086 12.5189 91.3694 12.0957 92.0429 13.1908ZM51.2775 15.5536C51.1718 16.3059 51.1463 16.345 50.8546 16.1746C50.4983 15.9493 50.4983 15.4478 50.8546 15.1715C51.3186 14.815 51.3832 14.8816 51.2775 15.5536ZM52.1351 17.1111C51.9099 17.8242 51.4753 18.9997 51.1581 19.7383C50.3534 21.6523 49.6407 23.4606 49.6407 23.6056C49.6407 23.684 49.8913 23.778 50.1811 23.8172C50.4846 23.8564 50.8546 24.0151 50.9995 24.16C51.4224 24.5832 51.1581 24.6479 50.5648 24.2521C50.2222 24.0268 49.8659 23.9093 49.5095 23.9093C48.93 23.9093 48.8497 23.7898 49.2452 23.539C49.3901 23.4469 49.5095 23.2628 49.5095 23.1295C49.5095 22.9846 49.905 21.9012 50.3808 20.7139C50.8683 19.5384 51.489 17.9692 51.7787 17.256C52.3328 15.8298 52.4111 15.6848 52.4914 15.7651C52.5188 15.7926 52.3602 16.3999 52.1351 17.1111ZM94.97 20.0556C95.2598 20.6101 95.8667 21.719 96.3033 22.5242C97.1472 24.0288 97.4115 24.7027 97.1472 24.7027C97.0689 24.7027 97.0023 24.6361 97.0023 24.5715C97.0023 24.3736 96.3954 23.1589 95.248 21.0607C94.6939 20.0439 94.2319 19.1721 94.2319 19.1211C94.2319 18.8155 94.4962 19.1584 94.97 20.0556ZM44.233 21.9697C44.233 22.6162 42.5844 27.6982 42.2673 28.0411C42.1615 28.1469 41.9638 28.0803 40.975 27.6453L40.5404 27.4612L40.5149 26.3131C40.4895 25.6803 40.4758 24.4657 40.4758 23.6193V22.0618L40.8713 21.9952C41.8071 21.8365 43.021 21.6915 43.6143 21.6778C44.1684 21.6661 44.233 21.6915 44.233 21.9697ZM53.8639 22.5379C53.719 22.867 53.5996 23.2373 53.5996 23.3431C53.5996 23.4881 53.5076 23.5272 53.2706 23.4881C52.9809 23.4214 52.928 23.4743 52.7949 23.9641C52.5971 24.6772 52.0039 26.1819 51.859 26.3543C51.6613 26.5659 51.3578 26.0369 51.3578 25.4825C51.3578 25.218 51.4361 24.928 51.5418 24.8496C51.6338 24.7713 51.7533 24.5323 51.7924 24.3344C51.8316 24.1365 51.9765 23.8858 52.1096 23.7662C52.2428 23.6467 52.7029 23.1981 53.1395 22.7495C53.5741 22.3145 53.9696 21.958 54.0225 21.9443C54.0753 21.9305 53.9951 22.2068 53.8639 22.5379ZM38.1263 24.5969C38.0871 25.9311 38.0069 27.1183 37.9677 27.2378C37.8894 27.4357 37.7308 27.4631 36.6089 27.3828C35.8962 27.3436 35.303 27.2907 35.2893 27.2633C35.2638 27.2496 35.2893 26.1681 35.3285 24.8614L35.4342 22.4987L36.5032 22.3674C37.0827 22.3008 37.7171 22.2362 37.8874 22.2225L38.2046 22.197L38.1263 24.5969ZM55.487 23.2765C55.8296 23.3019 55.9216 23.396 56.0548 23.778C56.372 24.689 58.2183 31.3814 58.2966 31.9221L58.3886 32.4903H56.8849C56.0548 32.4903 55.1561 32.4511 54.8937 32.4119L54.4062 32.3335L54.2613 31.3834C54.183 30.8681 53.997 29.9983 53.8521 29.4556C53.7073 28.9149 53.5487 28.2683 53.4958 28.0176C53.3901 27.4886 53.2844 27.5826 52.8497 28.5975C52.6911 28.954 52.3211 29.7847 52.045 30.4449C51.7552 31.0915 51.3323 32.0945 51.0954 32.649C50.8194 33.3229 50.5942 33.6912 50.4102 33.7441C50.0284 33.8754 50.001 33.7578 50.3181 33.3621C50.5942 33.0055 51.2149 31.6322 52.1644 29.2832C52.4542 28.57 52.8634 27.6199 53.1003 27.1712C53.3255 26.7226 53.6544 26.0232 53.8267 25.6274C54.091 25.0201 54.1302 24.9809 54.0636 25.3629C53.9716 25.9703 54.1556 25.7332 54.4983 24.7948C54.8409 23.8701 54.8546 23.778 54.5766 23.778C54.4571 23.778 54.3925 23.7388 54.418 23.6722C54.4434 23.6193 54.5766 23.3156 54.7215 22.9983L54.9858 22.4184L55.0249 22.8278C55.0641 23.1707 55.1307 23.2373 55.487 23.2765ZM50.4474 25.6392C50.2359 26.0349 49.721 27.277 49.3255 28.4114C48.8243 29.8376 48.3367 30.9053 47.7827 31.8438C47.3343 32.5961 46.8468 33.4934 46.6999 33.8362C46.4356 34.4827 46.1596 34.708 46.277 34.1653C46.3025 34.0066 46.3965 33.3347 46.4611 32.6862C46.5531 31.8144 46.8311 30.7721 47.5027 28.7268C48.0176 27.1947 48.466 25.7959 48.5051 25.5843C48.5834 25.2278 48.7694 25.122 48.9143 25.3473C48.9535 25.4139 48.65 26.4424 48.2545 27.6316C47.3578 30.2588 46.7371 32.4237 46.7508 32.8723V33.2152L46.9094 32.886C46.9877 32.7019 47.4772 31.6576 48.0039 30.5762C48.5188 29.481 49.0866 28.1861 49.2432 27.6728C49.5193 26.8009 49.9168 26.0095 50.4709 25.1905C50.8957 24.5832 50.882 24.8869 50.4474 25.6392ZM98.1496 25.6529C98.3219 25.8116 98.4531 26.0232 98.4531 26.129C98.4531 26.2602 98.3474 26.2073 98.1242 25.9703C97.5701 25.3767 97.0023 25.5882 97.0023 26.3934C97.0023 26.7892 97.0415 26.8421 97.3058 26.7755C97.4644 26.75 97.7013 26.6697 97.8462 26.6168C98.0576 26.5247 98.0713 26.5384 97.9382 26.7892C97.7541 27.1458 97.2001 27.3044 96.9357 27.0791C96.7106 26.895 96.6714 26.2073 96.8692 25.7058C97.0297 25.2572 97.7013 25.2297 98.1496 25.6529ZM99.3244 25.9037C99.3772 25.982 99.7199 26.0232 100.207 25.9957C100.761 25.9703 101.026 26.0095 101.051 26.1153C101.118 26.3131 100.575 26.3406 99.5867 26.2073C99.2049 26.1544 98.9798 26.0486 98.9798 25.9428C98.9817 25.7195 99.1932 25.7058 99.3244 25.9037ZM96.2113 26.5247C96.2113 26.5776 95.8158 26.75 95.3283 26.9205C94.8271 27.0791 94.3259 27.2496 94.2064 27.2907C94.0478 27.3436 93.9695 27.3044 93.9695 27.1712C93.9695 27.038 94.2201 26.895 94.7351 26.7481C95.1442 26.6285 95.5535 26.511 95.6181 26.4836C95.855 26.4052 96.2113 26.4189 96.2113 26.5247ZM89.7737 27.038C90.0772 27.3142 90.0772 27.6316 89.7737 28.0156C89.484 28.3722 89.2334 28.3056 88.9436 27.7903C88.5207 27.0517 89.1531 26.4718 89.7737 27.038ZM90.5647 27.7257C90.5256 28.1488 90.5647 28.2546 90.7625 28.3056C90.9348 28.3447 90.9211 28.3722 90.6705 28.3839C90.367 28.3976 90.3415 28.3585 90.3415 27.804C90.3415 27.4749 90.4081 27.2104 90.4727 27.2104C90.551 27.2104 90.5902 27.4338 90.5647 27.7257ZM96.7125 28.094C96.8437 28.3447 96.7125 29.7436 96.4619 30.827C96.317 31.4343 96.2896 31.4598 95.9333 31.3814C95.7355 31.3422 95.1815 31.1444 94.7194 30.9328C93.901 30.5625 93.8755 30.5233 93.7835 29.9689C93.7444 29.6515 93.6641 29.2028 93.6249 28.9658L93.5466 28.5426L94.5882 28.2135C95.8276 27.8177 96.5539 27.7786 96.7125 28.094ZM98.2554 28.7542C98.1359 29.5594 97.7013 31.448 97.5955 31.5401C97.4115 31.7243 97.4115 31.3814 97.5955 30.4841C97.991 28.57 98.4668 27.3162 98.2554 28.7542ZM34.5512 28.57C34.7626 28.6758 35.1973 28.8071 35.5282 28.86C35.8571 28.9129 36.3192 29.0324 36.558 29.1362C36.9927 29.3086 38.6158 30.7604 38.51 30.8779C38.4709 30.9034 38.1537 30.7329 37.8111 30.4684C37.0318 29.9003 35.8199 29.293 35.6221 29.3596C35.5438 29.385 35.8865 29.7299 36.374 30.1256C36.8752 30.5213 37.6016 31.1561 37.9697 31.5244C38.7489 32.3042 39.1561 32.408 39.3539 31.8947C39.4733 31.591 39.5379 31.5656 40.3035 31.5773C41.5839 31.5773 42.9016 31.7615 43.0876 31.9476C43.2188 32.0789 42.8762 32.0926 41.3725 32.0142C40.278 31.9613 39.4851 31.975 39.4851 32.0397C39.4988 32.1063 39.5771 32.5157 39.6828 32.9507C39.9334 33.9675 39.9471 34.996 39.7083 34.996C39.6025 34.996 39.4714 34.6669 39.3656 34.1242C39.2071 33.3327 39.1405 33.2406 38.6667 32.937C38.3769 32.7528 37.4273 32.0122 36.5424 31.2737C34.6961 29.7553 33.9031 29.2675 32.8889 28.9893C32.4934 28.8698 31.9648 28.7248 31.7279 28.6465C31.1072 28.4486 30.7783 28.7522 30.7646 29.5712C30.7509 29.9003 30.7254 30.0335 30.6863 29.8474C30.5277 28.8169 30.6197 28.8698 29.4195 28.9756C28.8263 29.0285 28.325 29.1206 28.2976 29.1735C28.2722 29.2401 28.139 29.2655 27.9942 29.2264C27.769 29.1597 26.4631 29.3184 25.3432 29.53C25.0005 29.5966 24.9731 29.5692 24.9731 29.2126C24.9731 28.7248 24.9868 28.7248 28.2056 28.5269C29.5898 28.4486 30.8037 28.3545 30.9095 28.3291C31.397 28.1998 34.1811 28.3859 34.5512 28.57ZM24.3133 29.0187C24.3133 29.15 24.2741 29.389 24.235 29.5594C24.1684 29.7965 24.1156 29.8239 23.9707 29.7044C23.7455 29.5202 22.5199 29.5849 19.4988 29.9689C18.3378 30.1138 16.887 30.298 16.2663 30.3783C15.6457 30.4587 15.0661 30.5507 14.9859 30.5762C14.8547 30.6154 14.8136 31.3285 14.8136 33.5462C14.8136 35.1429 14.7607 36.4497 14.7078 36.4497C14.5884 36.4497 14.3789 30.1138 14.4827 30.0081C14.5081 29.9689 15.538 29.8356 16.7519 29.7044C17.9658 29.5731 19.536 29.3753 20.2213 29.2557C21.5546 29.0304 23.1758 28.8326 23.8884 28.8071C24.2076 28.7934 24.3133 28.8463 24.3133 29.0187ZM53.8639 33.2818C53.9559 34.1124 54.0362 34.8138 54.0616 34.8393C54.0871 34.8647 55.2364 34.8922 56.6206 34.8922C58.6255 34.9059 59.1404 34.9451 59.1404 35.09C59.1404 35.2213 58.6001 35.2625 56.462 35.2625H53.7836L53.625 33.6383C53.5467 32.7548 53.349 31.4461 53.2021 30.7212C52.8066 28.8071 52.8986 28.4897 53.3333 30.2451C53.5467 31.0777 53.7856 32.4511 53.8639 33.2818ZM99.0992 30.6428C98.9543 31.2639 98.782 31.8183 98.7174 31.8829C98.506 32.0945 98.5588 31.6851 98.8623 30.6957C99.2324 29.4556 99.2441 29.4144 99.3107 29.481C99.3381 29.5065 99.2461 30.0355 99.0992 30.6428ZM91.25 30.0609C91.6729 30.4841 91.158 31.5656 90.5373 31.5656C90.1947 31.5656 90.1281 31.499 90.0087 31.0503C89.7972 30.2706 90.0087 29.8494 90.5882 29.8494C90.8408 29.8513 91.1443 29.9434 91.25 30.0609ZM92.5696 30.9465C92.9397 31.1972 93.6778 31.6204 94.2064 31.8967C94.7214 32.1866 95.156 32.4648 95.156 32.5177C95.156 32.7548 92.0155 30.9994 91.7786 30.6291C91.6455 30.4058 91.8961 30.5096 92.5696 30.9465ZM95.6181 32.7548C95.6572 32.8214 95.6318 32.886 95.5652 32.886C95.4869 32.886 95.4203 32.8194 95.4203 32.7548C95.4203 32.6764 95.4458 32.6235 95.4732 32.6235C95.5123 32.6215 95.577 32.6744 95.6181 32.7548ZM97.3978 32.886C97.5564 32.9918 97.5427 33.0173 97.3195 33.0173C97.1746 33.0173 97.0023 33.0565 96.9494 33.1094C96.8966 33.1623 96.7125 33.2014 96.5148 33.2152C96.0801 33.2152 95.8295 33.5854 96.0273 33.9009C96.225 34.23 96.6871 34.2711 97.0826 34.0066C97.5055 33.7304 97.5838 33.7951 97.3195 34.1791C96.7654 34.9705 95.4066 34.0066 95.9215 33.1897C96.1447 32.8331 97.0415 32.649 97.3978 32.886ZM44.6285 33.415C44.9711 33.6266 44.7068 33.652 43.7043 33.4816L42.7156 33.3092L43.5732 33.2955C44.0489 33.2955 44.5228 33.3347 44.6285 33.415ZM91.6592 34.8667C92.0938 35.3153 92.6479 35.7914 92.8868 35.9501C93.6249 36.3988 93.7698 36.8474 93.7581 38.497C93.7444 39.645 93.6797 40.1074 93.4546 40.6873C93.1511 41.4788 92.3464 42.523 92.1741 42.3506C92.1213 42.2977 92.2524 42.0606 92.4776 41.8216C92.9259 41.3593 93.2157 40.8186 93.3606 40.2112C93.5055 39.6431 93.4663 37.9798 93.3077 37.3724C93.1766 36.8846 92.4247 35.8404 92.2916 35.9736C92.2661 35.9991 92.3836 36.5281 92.5677 37.1354C93.0552 38.7203 93.0023 39.3531 92.5148 37.874C91.9607 36.2244 91.5261 35.4447 90.6548 34.5219C90.2201 34.087 89.8755 33.6775 89.8755 33.6246C89.8795 33.4013 90.9465 34.1399 91.6592 34.8667ZM93.0454 34.2202C93.8755 34.6551 94.457 35.0783 94.3513 35.1841C94.2847 35.2507 92.5579 34.3005 91.8589 33.8107C91.4889 33.5462 92.2798 33.8244 93.0454 34.2202ZM17.0319 35.3937C17.0064 36.0265 16.9653 36.1852 16.7813 36.1852C16.609 36.1852 16.5698 36.0265 16.5444 35.3937C16.5307 34.6806 16.5444 34.6022 16.795 34.6022C17.0456 34.6022 17.0573 34.6688 17.0319 35.3937ZM88.691 34.7883C88.691 34.8275 88.4933 34.9725 88.2681 35.1312L87.8335 35.4211L88.2035 35.0783C88.5598 34.7472 88.691 34.6688 88.691 34.7883ZM19.9589 34.998C19.63 35.1821 17.584 35.3153 17.584 35.1567C17.584 34.998 17.9795 34.9451 19.2991 34.9059C19.8278 34.8922 20.0784 34.9333 19.9589 34.998ZM43.6789 36.1872H45.024V36.6103V37.0198L42.9525 36.9277C41.8052 36.8748 40.7753 36.8219 40.6696 36.8356C39.0211 36.8748 32.887 37.1393 30.9741 37.2451C29.6016 37.3235 26.8703 37.4704 24.9066 37.5742C19.63 37.8642 16.9516 38.0229 15.5145 38.1679C14.8018 38.2345 14.1812 38.2991 14.1303 38.2991C14.0637 38.2991 14.0245 38.115 14.0245 37.9034C14.0245 37.5605 14.0774 37.5076 14.3946 37.5076C14.5923 37.5076 15.7279 37.4293 16.9281 37.3235C18.1283 37.2177 20.3192 37.059 21.8092 36.9806C23.2991 36.9022 25.8463 36.7553 27.4812 36.6515C29.118 36.5457 31.9393 36.4007 33.7484 36.3223C35.5693 36.244 37.3098 36.1637 37.6407 36.1382C37.9697 36.1127 39.1581 36.1127 40.28 36.1382C41.3979 36.1597 42.9271 36.1872 43.6789 36.1872ZM87.2148 36.4242C86.8193 36.9787 85.7503 38.2991 85.6974 38.2991C85.6308 38.2991 85.8286 38.0229 86.6333 37.0061C86.9896 36.5574 87.3068 36.1872 87.3322 36.1872C87.3577 36.1872 87.3068 36.293 87.2148 36.4242ZM59.0093 36.7671C59.0093 37.2549 58.7586 37.3744 58.0851 37.202C57.531 37.057 57.5056 37.0178 57.6231 36.7396C57.7288 36.5026 57.86 36.4497 58.3749 36.4497C58.9564 36.4497 59.0093 36.4771 59.0093 36.7671ZM95.4321 36.675C95.5515 36.8866 95.7747 36.912 97.4232 36.8729C99.4556 36.82 99.5084 36.8337 99.5084 37.5997C99.5084 38.0875 99.2715 38.3128 99.0855 37.9817C98.8741 37.6115 98.6234 37.7447 98.4002 38.3638C98.2691 38.6929 98.1105 38.9574 98.0576 38.9574C97.991 38.9574 98.0185 38.7595 98.1242 38.5087C98.3885 37.8877 98.1633 37.7172 97.108 37.7564C96.5539 37.7819 96.2779 37.731 96.1976 37.6115C96.131 37.5057 96.0782 37.7564 96.0782 38.2325C96.0782 39.1043 95.8021 40.319 95.4712 40.9518C95.3655 41.1771 95.2461 41.3338 95.2206 41.3083C95.2069 41.2946 95.2872 40.846 95.4184 40.3444C95.7218 39.1964 95.761 37.6115 95.4967 37.3881C95.2598 37.1902 94.9955 36.4516 95.154 36.4516C95.2343 36.4497 95.3538 36.5555 95.4321 36.675ZM48.1253 39.8429C48.7048 39.9487 49.3255 40.1191 49.5095 40.2249L49.8385 40.3973H49.5095C48.744 40.4111 47.2149 40.1329 47.1091 39.9879C47.0426 39.8566 46.3573 39.8155 44.417 39.8155C42.0813 39.8155 41.8052 39.841 41.7523 40.0408C41.6074 40.5952 40.8027 40.464 40.8027 39.8821V39.5118L43.9432 39.5784C45.9481 39.6196 47.4518 39.7116 48.1253 39.8429ZM44.9985 40.1603C43.5086 40.2524 42.9134 40.4111 42.9134 40.6755C42.9134 40.7539 42.8213 40.8068 42.7156 40.8068C42.465 40.8068 41.858 40.4248 41.858 40.2661C41.858 40.1466 43.0445 40.0682 45.1552 40.0545H46.5394L44.9985 40.1603ZM91.436 40.4365C91.252 40.6736 90.7762 41.083 90.3944 41.3475C89.2608 42.1273 85.7503 43.3008 85.065 43.1558C84.9201 43.1303 85.3685 42.9716 86.0537 42.7992C88.1252 42.3114 90.2084 41.3475 91.0013 40.5423C91.62 39.9095 91.8844 39.8429 91.436 40.4365ZM60.2623 40.6089C60.9887 40.6089 61.1864 40.6481 61.2256 40.8068C61.251 40.991 61.0807 41.0047 59.9725 40.9655C59.2599 40.94 58.6529 40.8871 58.6275 40.8597C58.4826 40.7284 58.9446 40.4111 59.1287 40.5031C59.2462 40.556 59.7474 40.6089 60.2623 40.6089ZM62.8741 40.9126C62.8213 41.1497 63.0053 41.1634 66.2124 41.2554C70.5393 41.3612 71.0268 41.5983 66.9505 41.5983C64.4835 41.5983 64.0215 41.6238 64.0215 41.7825C64.0215 41.8882 64.1527 42.0724 64.3112 42.1782C64.5619 42.3506 65.1296 42.3898 67.8081 42.3898C69.5897 42.3898 71.0268 42.4427 71.066 42.5093C71.1189 42.5877 69.9578 42.6543 68.2701 42.6817C66.0283 42.7072 65.3274 42.7601 65.1571 42.907C64.9593 43.0794 64.8536 43.0265 64.2466 42.4192C63.5731 41.7589 62.3201 41.0732 61.7797 41.0732C61.5154 41.0732 61.437 40.9283 61.6074 40.7696C61.6465 40.7167 61.9774 40.6775 62.3201 40.6775C62.8604 40.6755 62.927 40.701 62.8741 40.9126ZM34.2066 41.5983C34.2066 41.902 33.9305 41.9411 33.5076 41.7041L33.2178 41.5454L33.5468 41.4533C34.1028 41.2946 34.2066 41.3221 34.2066 41.5983ZM23.9178 42.9188C23.9178 43.0637 23.9844 43.1832 24.049 43.1832C24.1273 43.1832 24.1802 43.0912 24.1802 42.9854C24.1802 42.8796 24.2467 42.7875 24.3113 42.7875C24.3897 42.7875 24.4425 43.0774 24.4425 43.4477C24.4425 44.3313 24.047 44.3587 23.5987 43.4869C23.3089 42.9188 23.3344 42.6562 23.6515 42.6562C23.8258 42.6543 23.9178 42.7463 23.9178 42.9188ZM29.5898 43.1558C29.5898 43.4732 29.2198 43.9747 28.9966 43.9747C28.8909 43.9747 28.746 43.8552 28.6677 43.724C28.562 43.5124 28.6011 43.4203 28.8791 43.195C29.3138 42.8521 29.5898 42.8404 29.5898 43.1558ZM34.7078 43.2498C34.9584 43.7906 35.3676 43.8572 37.768 43.7651L39.9843 43.673L39.9178 44.0159C39.8258 44.5037 39.2971 44.6487 38.2301 44.4919C37.3999 44.3607 35.3285 44.4528 32.4249 44.7682C31.8453 44.8348 29.9442 44.8877 28.2037 44.8877C26.4631 44.9014 24.2056 44.9935 23.1914 45.0993C22.1753 45.2051 20.9496 45.2971 20.4739 45.2971C19.6829 45.2971 18.5355 45.4558 17.954 45.64C17.7563 45.6929 17.7171 45.6263 17.7171 45.3109C17.7171 45.0738 17.7837 44.9014 17.8894 44.9014C17.9678 44.9014 18.7078 44.8348 19.4988 44.7701C20.3035 44.6918 23.7475 44.5448 27.1758 44.4528C33.9834 44.2549 33.9697 44.2686 34.1537 43.4751C34.3123 42.7992 34.4846 42.7346 34.7078 43.2498ZM90.8016 42.9854C90.8016 43.1166 89.7463 43.5653 88.4933 43.963C86.7919 44.5174 85.2471 44.7153 83.8765 44.5566L82.8212 44.4508L84.5364 44.3587C86.2906 44.2666 88.8379 43.7259 90.0772 43.1715C90.6313 42.9188 90.8016 42.8796 90.8016 42.9854ZM60.0254 43.2087C60 43.3282 59.7748 43.3674 59.393 43.34C58.4963 43.2616 58.4434 43.05 59.3264 43.05C59.8786 43.05 60.0646 43.0912 60.0254 43.2087ZM43.4283 43.5006C43.626 43.7377 43.5595 44.5311 43.35 44.5958C43.2051 44.6487 42.651 43.6985 42.651 43.4203C42.651 43.2361 43.2697 43.3008 43.4283 43.5006ZM71.5809 43.6985C71.7004 43.6985 71.8061 43.7651 71.8061 43.8435C71.8061 44.0159 65.4351 44.0805 65.3157 43.9101C65.0396 43.5398 65.2902 43.5143 68.2701 43.5927C69.9578 43.6456 71.4497 43.6848 71.5809 43.6985ZM62.649 43.9218C62.6098 44.0413 62.5707 44.3313 62.5707 44.5821C62.5707 44.8994 62.5041 45.0307 62.3729 45.0307C62.2417 45.0307 62.1752 44.8994 62.1752 44.5821C62.1752 44.3313 62.136 44.0413 62.0969 43.9218C62.0303 43.7631 62.0969 43.7102 62.3729 43.7102C62.649 43.7102 62.7156 43.7631 62.649 43.9218Z" fill="white"/>
<path d="M90.367 30.2197C90.0909 30.5233 90.0772 30.9583 90.3416 31.1698C90.6176 31.3952 90.9348 31.117 90.9348 30.6409C90.9348 30.1276 90.6431 29.916 90.367 30.2197Z" fill="white"/>
<path d="M36.6477 1.13828C35.8567 1.24408 34.9189 1.32244 34.5763 1.32244C34.0085 1.33616 33.9439 1.37534 33.8636 1.679C33.8107 1.86316 33.5875 2.86624 33.3624 3.88303C32.9806 5.59923 32.9277 5.75792 32.6242 5.83629C31.5161 6.13996 28.2699 6.91969 27.941 6.95887C27.5846 7.01177 27.426 6.86679 26.1593 5.42683C25.3937 4.55502 24.6948 3.8556 24.589 3.84189C24.497 3.84189 23.5729 4.25135 22.5567 4.7666C21.5406 5.26814 20.6302 5.69131 20.5244 5.69131C20.4324 5.69131 20.3521 5.79711 20.3521 5.91661C20.3521 6.24575 20.7222 9.28241 20.8142 9.81138C20.8925 10.2463 20.8808 10.2737 19.3105 11.4081C18.4393 12.0409 17.3977 12.8598 17.0022 13.2301L16.264 13.904L15.9077 13.6395C15.6962 13.5083 14.6938 12.9538 13.6659 12.4111L11.7922 11.4335L10.1691 13.136C9.27238 14.0725 8.53229 14.9188 8.50684 15.0246C8.44027 15.2754 10.0105 17.8634 10.5391 18.3904C10.776 18.6275 10.9875 18.8783 10.9875 18.9449C10.9875 19.0115 10.8426 19.2485 10.684 19.4738C10.5117 19.6991 9.95764 20.569 9.47012 21.4016C8.9689 22.2323 8.5597 22.9337 8.53425 22.9591C8.52054 22.9846 7.91359 22.9199 7.20092 22.8142C6.48824 22.6946 5.36636 22.5634 4.70851 22.5242L3.50832 22.4321L2.77019 24.6636L2.03206 26.8813L2.71733 27.5024C3.29686 28.0313 4.69676 29.0462 5.50146 29.5222C5.71291 29.6417 5.71291 29.7338 5.4623 31.0014C5.31742 31.74 5.13337 32.9409 5.0394 33.6815L4.88081 35.0019L4.2347 35.1998C3.54943 35.3977 0.790752 36.7044 0.408962 37.0081C0.197509 37.1668 0.197509 37.2726 0.434415 38.6969C0.579299 39.5275 0.763342 40.5189 0.82991 40.9009L0.974795 41.5866L1.85781 41.7845C2.34532 41.8903 3.0443 42.0098 3.40063 42.0607C4.72026 42.2194 4.58712 42.047 4.86514 44.0414L5.10205 45.8242L6.59201 45.8497C7.41041 45.8634 8.1877 45.8751 8.32084 45.8751C8.51858 45.8888 8.55774 45.7027 8.63802 44.5684C8.75745 42.8522 9.25867 41.757 10.2337 41.1105L10.8661 40.6873L10.9053 38.3383C10.919 37.0453 11.011 35.5662 11.0893 35.0646C11.1813 34.5494 11.3928 33.0722 11.5768 31.7654C11.7491 30.4587 11.9586 29.1911 12.0389 28.9678C12.1583 28.6504 12.3952 28.4525 13.0805 28.0842C14.1221 27.5298 14.1887 27.4769 14.6899 26.4209C14.9013 25.986 15.614 24.7321 15.9038 24.2424C16.7339 22.8435 17.4877 21.7993 18.1593 21.0882C18.3844 20.8511 18.872 20.3084 19.2283 19.8872C19.9273 19.082 21.4701 17.55 22.1182 17.023C24.031 15.5046 27.6199 13.6826 30.1788 12.9303C30.6938 12.7853 31.2204 12.6129 31.3653 12.56C32.2366 12.1898 34.9013 11.6882 35.1382 11.8469C35.2048 11.8861 35.3359 11.8606 35.428 11.794C35.8626 11.4512 40.8494 11.5041 43.1049 11.8861C44.8592 12.1761 46.5606 12.6247 46.7857 12.8363C47.0364 13.0733 47.424 12.9107 48.1896 12.3151C49.2625 11.4786 50.4607 10.5794 51.4827 9.96027C52.446 9.58999 53.5542 8.73189 53.3956 8.48112C53.3565 8.40276 52.9727 8.13827 52.538 7.87379C52.1034 7.60931 51.7471 7.37225 51.7471 7.33307C51.7471 7.3076 51.8254 6.72574 51.9311 6.05179C52.0368 5.39157 52.1426 4.42767 52.1817 3.93985L52.2483 3.02885L51.7999 2.84469C51.2067 2.59392 47.657 1.56342 47.6041 1.61631C47.2752 2.03949 45.7304 4.53346 45.5072 4.98211C45.2175 5.57572 45.2175 5.58944 44.6888 5.49736C43.3692 5.28577 41.2331 5.035 40.7711 5.035C40.401 5.035 40.2424 4.96839 40.1778 4.79795C40.0995 4.56089 38.7407 1.53795 38.5684 1.20685C38.4294 0.940411 38.3491 0.940411 36.6477 1.13828Z" fill="white"/>
<path d="M71.4495 20.1752L70.4862 20.2281V20.8746V21.5211L69.8401 21.719C69.4838 21.8248 69.0217 21.9952 68.8102 22.1147C68.4285 22.3126 68.401 22.2989 68.0447 21.9306C67.8333 21.7053 67.5689 21.5348 67.4515 21.5348C67.1617 21.5348 65.472 23.0786 65.472 23.3431C65.472 23.4626 65.6306 23.7663 65.8147 24.0033L66.1573 24.4657L65.8009 25.1396C65.286 26.1035 65.2723 26.1172 64.6145 26.223L64.0212 26.3014V27.6081C64.0212 29.0462 63.9821 28.9815 64.9453 29.0873C66.0574 28.8973 66.0457 29.6711 66.2924 30.9975C66.2258 31.354 65.3408 32.0182 65.5131 32.2964C65.8421 32.8371 67.2146 34.3417 67.4006 34.3417C67.4926 34.3417 67.7295 34.1046 67.9409 33.8264L68.3227 33.3112L68.6399 33.562C68.8239 33.6932 69.2723 33.9048 69.6561 34.0243L70.3413 34.2222L70.3805 34.9745L70.4196 35.7268H71.7393H73.0589L73.1255 34.9353C73.1783 34.2751 73.2312 34.1438 73.4544 34.1046C73.5993 34.0792 74.0613 33.9068 74.4705 33.7226L75.2224 33.3935L75.6981 33.75L76.1739 34.1203L76.5302 33.8029C77.3741 33.0761 78.1396 32.2983 78.1396 32.1925C78.1396 32.1259 78.0202 31.9026 77.8636 31.691L77.5993 31.309L77.9164 30.4783C78.1005 30.0296 78.2728 29.5418 78.2982 29.3949C78.3237 29.197 78.4568 29.1186 78.866 29.0912C79.1558 29.0657 79.4593 28.9854 79.5513 28.9071C79.7764 28.7229 79.7882 26.5443 79.565 26.319C79.473 26.227 79.1421 26.1603 78.8269 26.1603C78.2591 26.1603 78.2591 26.1603 77.9301 25.4335C77.5346 24.5225 77.5346 24.4304 77.9556 23.7702L78.2982 23.2158L77.613 22.5301C76.6105 21.5133 76.4128 21.4349 75.9644 21.8561C75.5298 22.2656 75.3849 22.2793 74.7368 21.9482C74.4607 21.8032 74.0104 21.6583 73.7481 21.6054C73.2723 21.5133 73.2605 21.4859 73.2605 20.9588C73.2605 20.3378 73.0765 20.0753 72.681 20.1145C72.5165 20.1223 71.9625 20.1615 71.4495 20.1752ZM73.2958 24.6499C74.1396 24.9398 75.0246 25.7587 75.3281 26.5247C75.6844 27.4495 75.6316 28.6896 75.1969 29.534C74.774 30.3647 74.2728 30.8015 73.3232 31.1581C72.0036 31.6596 70.355 31.4343 69.378 30.6291C69.1274 30.4175 68.7574 29.9023 68.5596 29.4948C67.6101 27.567 68.4285 25.2964 70.3139 24.6244C71.0011 24.3854 72.5577 24.3991 73.2958 24.6499Z" fill="white"/>
<path d="M26.561 58.6193H27.7534L27.1719 56.9697L26.561 58.6193Z" fill="white"/>
<path d="M0 48.8882V67.837H101.057V48.8882H0ZM20.1585 64.8082H13.4704V62.3984H14.1008C14.2613 62.3984 14.3847 62.3945 14.4767 62.3906C14.465 62.373 14.4513 62.3514 14.4356 62.3318L12.6343 59.7614L11.3304 60.8899V61.8851C11.3304 62.2143 11.3695 62.3044 11.3715 62.3083C11.393 62.3514 11.4106 62.3593 11.4204 62.3632C11.4204 62.3632 11.5183 62.3984 11.8805 62.3984H12.7538V64.8082H6.26136V62.3984H7.0876C7.47918 62.3984 7.58099 62.3573 7.58491 62.3553C7.60449 62.3455 7.62015 62.3338 7.63385 62.3005L7.63973 62.2887C7.63777 62.2887 7.6691 62.181 7.6691 61.7715V55.3867C7.6691 54.9674 7.62994 54.8577 7.62602 54.8479C7.61232 54.8146 7.59274 54.795 7.56141 54.7794C7.55945 54.7774 7.46743 54.7363 7.1385 54.7363H6.26332V52.3265H12.7577V54.7363H11.9823C11.6182 54.7363 11.4968 54.7578 11.4674 54.7637C11.3969 54.799 11.3813 54.8323 11.3754 54.8421C11.3734 54.844 11.3323 54.9381 11.3323 55.2868V57.4908L14.3005 54.7343H13.4704V52.3246H19.5457V54.7343H18.974C18.6725 54.7343 18.5805 54.7539 18.5648 54.7598C18.5335 54.7676 18.4591 54.795 18.322 54.8773C18.2046 54.9498 18.044 55.0732 17.8443 55.2496L15.2971 57.4555L18.4473 61.7127C18.8115 62.2045 18.9407 62.2887 18.9544 62.2966L18.9603 62.2985C19.0406 62.3436 19.207 62.3984 19.5359 62.3984H20.1585V64.8082ZM34.1908 64.8082H27.8727V62.4082L28.5932 62.3906C28.9378 62.3906 29.0298 62.3357 29.0298 62.3338C29.0298 62.3338 29.0298 62.3338 29.0317 62.3338C29.022 62.2789 28.9906 62.1477 28.8986 61.8753L28.6382 61.0799H25.6485L25.3059 62.0027C25.2354 62.2006 25.2099 62.3005 25.2001 62.3436C25.2138 62.3514 25.2452 62.3651 25.3 62.3769C25.3196 62.3808 25.4429 62.4004 25.999 62.4004H26.3945V64.8101H21.0807V62.4004H21.4762C21.8051 62.4004 21.9324 62.3651 21.9735 62.3495C22.044 62.322 22.1008 62.2848 22.1439 62.2358C22.1634 62.2123 22.2398 62.1124 22.3631 61.7892L26.0714 52.3285H29.2354L32.8399 61.605C33.0787 62.2104 33.2099 62.3181 33.2158 62.322C33.2216 62.3259 33.3333 62.4102 33.7875 62.4004L34.1889 62.3945V64.8082H34.1908ZM51.3812 54.7363H50.4081C50.1164 54.7363 50.0518 54.8048 50.0518 54.8048C50.0518 54.8048 49.9754 54.8969 49.9754 55.2789V61.9145C49.9754 62.181 49.9911 62.2809 49.9969 62.3083C50.0106 62.3338 50.0185 62.3416 50.0185 62.3416C50.0655 62.3671 50.1516 62.4004 50.3259 62.4004H51.3831V64.8101H44.973V62.4004H45.8051C46.1849 62.4004 46.2848 62.3612 46.2887 62.3593C46.3259 62.3436 46.3376 62.3259 46.3455 62.3103C46.3455 62.3083 46.3807 62.2241 46.3807 61.9165V57.4771L44.2251 64.8101H42.0165L41.3763 62.6335V64.8101H35.7943V62.4004H36.6617C37.0043 62.4004 37.0963 62.3612 37.1003 62.3593C37.1218 62.3475 37.1394 62.3338 37.157 62.2966C37.159 62.2926 37.2001 62.1947 37.2001 61.8303V55.277C37.2001 54.942 37.1747 54.8499 37.1707 54.8401C37.1472 54.7852 37.1257 54.7735 37.1179 54.7676C37.1179 54.7676 37.0493 54.7323 36.8301 54.7323H35.7943V52.3226H39.16V52.2795L39.1717 52.3226H41.7738L43.5124 58.4175L45.3117 52.3226H47.066L47.1697 51.9719V52.3226H51.3812V54.7363ZM64.0233 63.1468C62.8094 64.3811 61.2451 65.008 59.3733 65.008C56.7204 65.008 54.6724 63.7796 53.2862 61.3562L53.112 61.0506L54.9818 59.6635L55.6083 60.357C56.0684 60.8997 56.4169 61.27 56.6518 61.4659C56.8731 61.65 57.1922 61.8264 57.5995 61.989C58.0008 62.1477 58.4179 62.23 58.8388 62.23C59.5769 62.23 60.1937 61.9478 60.7243 61.366C61.1785 60.8684 61.4937 60.2532 61.668 59.5361H57.666V57.1107H61.6836C61.5368 56.3996 61.2509 55.849 60.8339 55.4651C60.3307 55.0027 59.7786 54.7774 59.1501 54.7774C57.9558 54.7774 56.8868 55.71 55.9705 57.5496L55.8237 57.8454L53.574 57.1911L54.9132 52.3265H56.7537L56.7967 52.7654C57.5231 52.3402 58.4629 52.1267 59.6024 52.1267C61.3626 52.1267 62.8603 52.7419 64.0547 53.9546C65.247 55.1653 65.852 56.7248 65.852 58.5899C65.8501 60.3805 65.2353 61.9145 64.0233 63.1468ZM81.8931 64.8082H75.2069V62.3984H75.8373C75.9979 62.3984 76.1212 62.3945 76.2132 62.3906C76.2015 62.373 76.1878 62.3514 76.1721 62.3318L74.3708 59.7614L73.0669 60.8899V61.8851C73.0669 62.2143 73.106 62.3044 73.108 62.3083C73.1295 62.3514 73.1471 62.3593 73.1569 62.3632C73.1569 62.3632 73.2548 62.3984 73.6171 62.3984H74.4903V64.8082H67.9959V62.3984H68.8222C69.2137 62.3984 69.3155 62.3573 69.3195 62.3553C69.339 62.3455 69.3547 62.3338 69.3684 62.3005L69.3743 62.2887C69.3723 62.2887 69.4036 62.181 69.4036 61.7715V55.3867C69.4036 54.9674 69.3645 54.8577 69.3606 54.8479C69.3469 54.8146 69.3273 54.795 69.296 54.7794C69.294 54.7774 69.202 54.7363 68.8731 54.7363H67.9979V52.3265H74.4922V54.7363H73.7189C73.3547 54.7363 73.2333 54.7578 73.2039 54.7637C73.1413 54.795 73.1217 54.8225 73.11 54.8421C73.11 54.844 73.0669 54.9381 73.0669 55.2868V57.4908L76.0351 54.7343H75.2069V52.3246H81.2822V54.7343H80.7105C80.409 54.7343 80.317 54.7539 80.3013 54.7598C80.27 54.7676 80.1956 54.795 80.0605 54.8773C79.943 54.9498 79.7825 55.0732 79.5828 55.2496L77.0355 57.4555L80.1819 61.7127C80.5461 62.2045 80.6753 62.2887 80.689 62.2966L80.6929 62.2985C80.7732 62.3436 80.9396 62.3984 81.2685 62.3984H81.8911V64.8082H81.8931ZM95.9254 61.3934C95.0463 62.5944 94.2572 63.4133 93.5113 63.8972C92.3737 64.6338 91.0913 65.008 89.6973 65.008C88.5323 65.008 87.4594 64.7239 86.5118 64.1617C85.5642 63.5994 84.8006 62.804 84.2387 61.797C83.6787 60.7919 83.3928 59.6811 83.3928 58.4958C83.3928 57.3145 83.6709 56.2213 84.2171 55.2476C84.7653 54.27 85.525 53.4961 86.4726 52.9495C87.4202 52.4029 88.4873 52.1247 89.6444 52.1247C90.6664 52.1247 91.5925 52.3167 92.4031 52.6968L92.6067 52.3265H94.3316L95.661 57.193L93.4173 57.8454L93.2685 57.5574C92.7731 56.6033 92.3091 55.9235 91.8862 55.5395C91.3223 55.0282 90.731 54.7794 90.0849 54.7794C89.617 54.7794 89.1882 54.9067 88.779 55.1692C88.3737 55.4278 88.0448 55.8216 87.802 56.3369C87.5514 56.8678 87.4261 57.5045 87.4261 58.2294C87.4261 59.3383 87.7198 60.3041 88.2993 61.0956C88.8593 61.8597 89.57 62.2319 90.4706 62.2319C91.0463 62.2319 91.6102 62.0634 92.1466 61.7304C92.8515 61.2974 93.4682 60.7057 93.9831 59.9711L94.2161 59.638L96.1564 61.078L95.9254 61.3934Z" fill="white"/>
<path d="M39.9512 62.1398C39.9512 62.2613 39.9747 62.2985 39.9747 62.3005C39.9845 62.3161 40.004 62.3377 40.053 62.3592C40.0628 62.3632 40.1489 62.3984 40.4191 62.3984H41.308L39.9531 57.7866V62.1398H39.9512Z" fill="white"/>
</g>
<defs>
<clipPath id="clip0_1_630">
<rect width="102.014" height="67.837" fill="white"/>
</clipPath>
</defs>
</svg>
