<svg width="102" height="51" viewBox="0 0 102 51" fill="none" xmlns="http://www.w3.org/2000/svg">
<path fill-rule="evenodd" clip-rule="evenodd" d="M53.4801 44.0361L53.4805 44.036L53.4806 44.036C53.8093 44.0073 54.1438 43.9781 54.4892 43.9525L57.1175 48.9345C57.6141 49.9317 58.6113 50.4747 59.8327 50.2931C60.9651 50.067 61.7806 49.2515 61.9159 48.0282L62.7314 42.5475C64.9519 41.96 67.1704 41.0981 69.3445 40.1473L73.4222 43.8172C74.2821 44.6327 75.3682 44.8124 76.5007 44.1786C77.4979 43.6355 77.9056 42.5475 77.6795 41.3706L76.5471 35.9364C78.4668 34.5964 80.2698 33.0966 81.9369 31.4529L87.0097 33.5787C88.1422 34.0328 89.1838 33.8067 90.0438 32.7651C90.8149 31.9496 90.9038 30.7727 90.2699 29.7755L87.3267 25.0659C88.6852 23.1624 89.7733 21.1236 90.8149 18.9495L96.3419 19.222C97.5169 19.2664 98.5141 18.6325 98.9218 17.502C99.2832 16.3676 98.9218 15.2815 97.971 14.5568L93.6673 11.115C94.2567 8.94093 94.7109 6.58518 94.8906 4.13861L100.145 2.50949C101.264 2.10674 101.982 1.26096 102 0.0615279H88.6044C88.6014 20.8273 71.7664 37.6604 50.9999 37.6604C30.2334 37.6604 13.3985 20.8273 13.3955 0.0615246L0 0.0615234C0.0141473 1.26111 0.648813 2.10825 1.81247 2.51142L7.067 4.18692C7.20228 6.58712 7.70087 8.94093 8.29029 11.117L3.94211 14.5568C2.98937 15.2815 2.67244 16.3696 3.03382 17.5001C3.39714 18.6325 4.39432 19.2664 5.57123 19.222L11.1427 18.9514C12.1863 21.1236 13.2723 23.1643 14.5845 25.064L11.6857 29.7755C11.0074 30.7727 11.0982 31.9496 11.8674 32.7651C12.7274 33.8067 13.8154 34.0328 14.9478 33.5806L19.9743 31.451C21.6518 33.1265 23.5089 34.6203 25.4105 35.9344L24.2781 41.3706C24.052 42.5495 24.4597 43.6355 25.4569 44.1786C26.5874 44.8124 27.6754 44.6308 28.5354 43.8172L32.5667 40.1473C34.7408 41.0981 36.9593 41.96 39.2242 42.5475L39.9953 48.0282C40.175 49.2515 40.9461 50.067 42.0786 50.2931C43.3463 50.4747 44.3435 49.9317 44.8421 48.9345L47.422 43.9525C47.7486 43.9767 48.069 44.0042 48.3863 44.0313L48.3872 44.0314L48.3873 44.0314C49.2579 44.106 50.1061 44.1786 51.001 44.1786C51.8468 44.1786 52.6448 44.1089 53.4801 44.0361Z" fill="white"/>
</svg>
