<svg width="102" height="101" viewBox="0 0 102 101" fill="none" xmlns="http://www.w3.org/2000/svg">
<path fill-rule="evenodd" clip-rule="evenodd" d="M102 50.266C101.982 51.4652 101.263 52.3108 100.145 52.7135L94.8906 54.3426C94.7109 56.7891 94.2567 59.1449 93.6673 61.319L97.971 64.7608C98.9218 65.4855 99.2832 66.5716 98.9218 67.7059C98.5141 68.8365 97.5169 69.4703 96.3419 69.4259L90.8149 69.1534C89.7733 71.3275 88.6853 73.3663 87.3267 75.2698L90.2699 79.9794C90.9038 80.9766 90.8149 82.1535 90.0438 82.969C89.1839 84.0106 88.1422 84.2367 87.0098 83.7826L81.9369 81.6568C80.2698 83.3005 78.4668 84.8003 76.5471 86.1403L77.6796 91.5745C77.9057 92.7514 77.4979 93.8394 76.5007 94.3825C75.3683 95.0163 74.2822 94.8366 73.4222 94.0211L69.3446 90.3512C67.1705 91.302 64.952 92.1639 62.7315 92.7514L61.916 98.232C61.7807 99.4553 60.9652 100.271 59.8327 100.497C58.6114 100.679 57.6142 100.136 57.1176 99.1384L54.4893 94.1564C54.1439 94.182 53.8094 94.2112 53.4806 94.2399L53.4802 94.2399C52.645 94.3128 51.8469 94.3825 51.0011 94.3825C50.1063 94.3825 49.2581 94.3098 48.3874 94.2353H48.3873L48.3865 94.2352C48.0691 94.208 47.7488 94.1806 47.4221 94.1564L44.8422 99.1384C44.3436 100.136 43.3464 100.679 42.0787 100.497C40.9462 100.271 40.1752 99.4553 39.9954 98.232L39.2244 92.7514C36.9594 92.1639 34.7409 91.302 32.5668 90.3512L28.5356 94.0211C27.6756 94.8347 26.5876 95.0163 25.4571 94.3825C24.4599 93.8394 24.0521 92.7533 24.2782 91.5745L25.4107 86.1383C23.5091 84.8242 21.652 83.3304 19.9745 81.6549L14.948 83.7845C13.8156 84.2367 12.7276 84.0106 11.8676 82.969C11.0985 82.1535 11.0076 80.9766 11.6859 79.9794L14.5847 75.2679C13.2725 73.3682 12.1865 71.3275 11.1429 69.1553L5.57146 69.4259C4.39455 69.4703 3.39737 68.8365 3.03406 67.704C2.67268 66.5735 2.98961 65.4855 3.94234 64.7608L8.29051 61.3209C7.70109 59.1449 7.2025 56.7911 7.06722 54.3909L1.8127 52.7154C0.635799 52.3076 0 51.4457 0 50.2244C0 49.0011 0.635799 48.1392 1.81077 47.7778L7.06722 46.1023C7.2025 43.6557 7.70109 41.3908 8.28858 39.1723L3.94041 35.6841C2.98961 35.0058 2.67268 33.9642 3.03599 32.8298C3.39737 31.6992 4.39262 31.0654 5.57146 31.1098L11.1429 31.3359C12.1845 29.1638 13.2725 27.123 14.6311 25.2214L11.6415 20.4636C11.3546 20.023 11.2213 19.4999 11.2622 18.9758C11.3031 18.4516 11.5159 17.9556 11.8676 17.5648C12.7276 16.5232 13.8156 16.2507 14.948 16.7493L19.9745 18.7881C21.6719 17.1739 23.4892 15.6906 25.4107 14.351L24.2763 8.95927C24.0521 7.73599 24.4599 6.64798 25.4552 6.10687C26.5432 5.51745 27.6292 5.60828 28.5356 6.5127L32.6113 10.0917C34.7612 9.14906 36.9703 8.3473 39.2244 7.69154L39.9954 2.25536C40.1752 1.07846 40.9462 0.218484 42.0787 0.0368274C43.3464 -0.144829 44.3436 0.353761 44.8422 1.35094L47.4221 6.33298C47.5705 6.32236 47.7164 6.31174 47.8603 6.30127L47.8608 6.30124C48.9478 6.22214 49.921 6.15132 51.0011 6.15132C52.0684 6.15132 53.0625 6.22601 54.1493 6.30766L54.4874 6.33298L57.1156 1.35094C57.6142 0.353761 58.6095 -0.144829 59.8327 0.0368274C60.9652 0.218484 61.7807 1.07652 61.916 2.25536L62.7315 7.73599C64.9863 8.37189 67.1956 9.15892 69.3446 10.0917L73.4222 6.5127C74.2822 5.60828 75.3683 5.51745 76.5007 6.10494C77.4979 6.64991 77.9057 7.73599 77.6796 8.95927L76.5452 14.3491C78.4432 15.7019 80.2448 17.1851 81.9369 18.7881L82.8413 18.4246L77.5929 23.673C70.7875 16.8658 61.3849 12.6553 50.9989 12.6553C30.2306 12.6553 13.3945 29.4913 13.3945 50.2596C13.3945 71.0279 30.2306 87.864 50.9989 87.864C71.7651 87.864 88.5998 71.0314 88.6032 50.266H102Z" fill="black"/>
</svg>
