<svg width="55" height="55" viewBox="0 0 55 55" fill="none" xmlns="http://www.w3.org/2000/svg">
<path fill-rule="evenodd" clip-rule="evenodd" d="M2.6674 47.5226L2.66753 47.5226C3.01709 47.4921 3.37277 47.461 3.74009 47.4337L6.53439 52.7306C7.06244 53.7908 8.12262 54.3682 9.42116 54.175C10.6252 53.9346 11.4922 53.0676 11.6361 51.767L12.5031 45.94C14.8639 45.3154 17.2226 44.399 19.5341 43.3882L23.8694 47.2899C24.7837 48.157 25.9384 48.3481 27.1424 47.6741C28.2026 47.0968 28.6361 45.94 28.3957 44.6887L27.1917 38.9111C29.2327 37.4865 31.1497 35.8919 32.9221 34.1443L38.3155 36.4044C39.5195 36.8873 40.627 36.6469 41.5413 35.5394C42.3611 34.6724 42.4556 33.4211 41.7817 32.3609L38.6525 27.3538C40.0969 25.3299 41.2537 23.1623 42.3611 20.8508L48.2374 21.1405C49.4866 21.1878 50.5468 20.5139 50.9803 19.3119C51.3645 18.1058 50.9803 16.9511 49.9694 16.1806L45.3938 12.5213C46.0204 10.2099 46.5033 7.70527 46.6943 5.10409L52.2809 3.37204C53.4702 2.9438 54.2345 2.04446 54.253 0.769043H40.0106C40.0074 22.847 22.1089 40.7437 0.0302739 40.7439L0.0302734 47.6741C0.0306692 47.6741 0.0310651 47.6741 0.0314609 47.6741C0.930779 47.6741 1.77932 47.6001 2.6674 47.5226Z" fill="black"/>
</svg>
