<svg width="102" height="101" viewBox="0 0 102 101" fill="none" xmlns="http://www.w3.org/2000/svg">
<path fill-rule="evenodd" clip-rule="evenodd" d="M53.4804 94.2396C52.6451 94.3125 51.8469 94.3821 51.001 94.3821C50.1061 94.3821 49.2578 94.3095 48.3871 94.235C48.0695 94.2078 47.7489 94.1803 47.422 94.156L44.842 99.1381C44.3435 100.135 43.3463 100.678 42.0786 100.497C40.9461 100.271 40.175 99.455 39.9953 98.2317L39.2242 92.7511C36.9593 92.1636 34.7408 91.3017 32.5667 90.3509L28.5355 94.0208C27.6755 94.8344 26.5875 95.016 25.457 94.3821C24.4598 93.8391 24.0521 92.753 24.2782 91.5742L25.4106 86.138C23.509 84.8239 21.6519 83.3301 19.9745 81.6546L14.948 83.7842C13.8155 84.2365 12.7275 84.0104 11.8676 82.9687C11.0984 82.1532 11.0076 80.9763 11.6859 79.9791L14.5847 75.2677C13.2725 73.368 12.1864 71.3273 11.1429 69.1551L5.57144 69.4257C4.39454 69.4701 3.39736 68.8363 3.03405 67.7038C2.67267 66.5733 2.9896 65.4853 3.94233 64.7606L8.29048 61.3207C7.70107 59.1447 7.20248 56.7909 7.0672 54.3907L1.8127 52.7152C0.635797 52.3075 0 51.4456 0 50.2242C0 49.0009 0.635797 48.139 1.81077 47.7776L7.0672 46.1022C7.20248 43.6556 7.70107 41.3907 8.28855 39.1722L3.9404 35.684C2.9896 35.0057 2.67267 33.964 3.03598 32.8297C3.39736 31.6991 4.3926 31.0653 5.57144 31.1097L11.1429 31.3358C12.1845 29.1637 13.2725 27.1229 14.6311 25.2213L11.6415 20.4635C11.3546 20.0229 11.2213 19.4999 11.2621 18.9757C11.303 18.4515 11.5159 17.9555 11.8676 17.5647C12.7275 16.5231 13.8155 16.2506 14.948 16.7492L19.9745 18.788C21.6719 17.1738 23.4891 15.6906 25.4106 14.351L24.2762 8.95924C24.0521 7.73596 24.4598 6.64795 25.4551 6.10685C26.5431 5.51743 27.6291 5.60826 28.5355 6.51268L32.6112 10.0917C34.7611 9.14903 36.9701 8.34727 39.2242 7.69151L39.9953 2.25535C40.175 1.07845 40.9461 0.218481 42.0786 0.0368246C43.3463 -0.144832 44.3435 0.353757 44.842 1.35093L47.422 6.33295C47.5705 6.32233 47.7166 6.3117 47.8606 6.30122C48.9477 6.22211 49.9208 6.1513 51.001 6.1513C52.0682 6.1513 53.0624 6.22599 54.1491 6.30764C54.2608 6.31603 54.3734 6.32449 54.4872 6.33295L57.1154 1.35093C57.614 0.353757 58.6093 -0.144832 59.8326 0.0368246C60.965 0.218481 61.7805 1.07652 61.9158 2.25535L62.7313 7.73596C64.9861 8.37186 67.1954 9.15888 69.3444 10.0917L73.422 6.51268C74.282 5.60826 75.368 5.51743 76.5005 6.10492C77.4977 6.64989 77.9054 7.73596 77.6793 8.95924L76.5449 14.349C78.4429 15.7018 80.2445 17.1851 81.9366 18.788L87.0095 16.7492C88.1419 16.2506 89.1836 16.5231 90.0435 17.5647C90.8127 18.3802 90.9035 19.5571 90.2716 20.5099L87.3264 25.2194C88.6869 27.121 89.773 29.1598 90.8127 31.3339L96.3397 31.1078C97.5166 31.0614 98.5137 31.6972 98.9215 32.8297C99.2829 33.9621 98.9215 35.0037 97.9688 35.682L93.667 39.1702C94.2564 41.3888 94.7086 43.6537 94.8884 46.1002L100.145 47.7757C101.277 48.1835 102 49.0434 102 50.2203C102 51.4436 101.277 52.3055 100.145 52.7133L94.8903 54.3424C94.7106 56.789 94.2564 59.1447 93.667 61.3188L97.9707 64.7606C98.9215 65.4853 99.2829 66.5713 98.9215 67.7057C98.5137 68.8362 97.5166 69.4701 96.3416 69.4257L90.8146 69.1532C89.773 71.3273 88.685 73.3661 87.3264 75.2696L90.2696 79.9791C90.9035 80.9763 90.8146 82.1532 90.0435 82.9687C89.1836 84.0104 88.1419 84.2365 87.0095 83.7823L81.9366 81.6565C80.2696 83.3002 78.4666 84.8 76.5469 86.14L77.6793 91.5742C77.9054 92.7511 77.4977 93.8391 76.5005 94.3821C75.368 95.016 74.282 94.8363 73.422 94.0208L69.3444 90.3509C67.1703 91.3017 64.9518 92.1636 62.7313 92.7511L61.9158 98.2317C61.7805 99.455 60.965 100.271 59.8326 100.497C58.6112 100.678 57.614 100.135 57.1174 99.1381L54.4892 94.156C54.1437 94.1817 53.8092 94.2109 53.4804 94.2396ZM51 87.863C71.7682 87.863 88.6042 71.027 88.6042 50.2588C88.6042 29.4905 71.7682 12.6546 51 12.6546C30.2317 12.6546 13.3957 29.4905 13.3957 50.2588C13.3957 71.027 30.2317 87.863 51 87.863Z" fill="white"/>
</svg>
