<svg width="102" height="85" viewBox="0 0 102 85" fill="none" xmlns="http://www.w3.org/2000/svg">
<path fill-rule="evenodd" clip-rule="evenodd" d="M53.4801 77.7325L53.4806 77.7325H53.4807C53.8094 77.7038 54.1439 77.6746 54.4893 77.6489L57.1176 82.631C57.6142 83.6282 58.6114 84.1712 59.8327 83.9895C60.9652 83.7634 61.7807 82.9479 61.916 81.7246L62.7315 76.244C64.952 75.6565 67.1705 74.7946 69.3446 73.8438L73.4222 77.5136C74.2822 78.3292 75.3683 78.5089 76.5007 77.875C77.4979 77.332 77.9057 76.244 77.6796 75.0671L76.5471 69.6328C78.4668 68.2929 80.2698 66.7931 81.9369 65.1494L87.0098 67.2752C88.1422 67.7293 89.1838 67.5032 90.0438 66.4616C90.8149 65.6461 90.9038 64.4691 90.2699 63.472L87.3267 58.7624C88.6853 56.8589 89.7733 54.8201 90.8149 52.646L96.3419 52.9185C97.5169 52.9629 98.5141 52.3291 98.9218 51.1985C99.2832 50.0641 98.9218 48.9781 97.971 48.2534L93.6673 44.8116C94.2567 42.6375 94.7109 40.2817 94.8906 37.8352L100.145 36.2061C101.264 35.8033 101.983 34.9573 102 33.7577H88.6042C88.601 54.5233 71.7662 71.3561 50.9999 71.3561C30.2315 71.3561 13.3955 54.5201 13.3955 33.7517C13.3955 23.369 17.6034 13.9691 24.4068 7.16425L19.2152 1.97268L14.948 0.241863C13.8156 -0.256727 12.7276 0.0157567 11.8676 1.05739C11.5159 1.44819 11.3031 1.94419 11.2622 2.46837C11.2213 2.99254 11.3546 3.51555 11.6415 3.95617L14.6311 8.71403C13.2725 10.6156 12.1845 12.6564 11.1429 14.8285L5.57145 14.6024C4.39262 14.558 3.39737 15.1918 3.03599 16.3224C2.67267 17.4567 2.98961 18.4984 3.94041 19.1767L8.28858 22.6649C7.70109 24.8834 7.2025 27.1483 7.06722 29.5949L1.81077 31.2704C0.635799 31.6318 0 32.4937 0 33.717C0 34.9383 0.635799 35.8002 1.8127 36.208L7.06722 37.8835C7.2025 40.2837 7.70109 42.6375 8.29051 44.8135L3.94234 48.2534C2.98961 48.9781 2.67267 50.0661 3.03406 51.1966C3.39737 52.3291 4.39455 52.9629 5.57145 52.9185L11.1429 52.6479C12.1865 54.8201 13.2725 56.8608 14.5847 58.7605L11.6859 63.472C11.0076 64.4691 11.0985 65.6461 11.8676 66.4616C12.7276 67.5032 13.8156 67.7293 14.948 67.2771L19.9745 65.1475C21.6519 66.823 23.5091 68.3168 25.4107 69.6309L24.2782 75.0671C24.0521 76.2459 24.4599 77.332 25.4571 77.875C26.5876 78.5089 27.6756 78.3272 28.5356 77.5136L32.5668 73.8438C34.7409 74.7946 36.9594 75.6565 39.2244 76.244L39.9954 81.7246C40.1752 82.9479 40.9462 83.7634 42.0787 83.9895C43.3464 84.1712 44.3436 83.6282 44.8422 82.631L47.4221 77.6489C47.7488 77.6732 48.0691 77.7006 48.3865 77.7278L48.3873 77.7278H48.3874C49.2581 77.8024 50.1063 77.875 51.0011 77.875C51.8469 77.875 52.6449 77.8054 53.4801 77.7325Z" fill="black"/>
</svg>
